<svg width="512.542" height="310.088" viewBox="0 0 135.61 82.044" xml:space="preserve" xmlns="http://www.w3.org/2000/svg"><g style="fill:#0375e5;fill-opacity:1"><g style="font-weight:800;font-size:68.6834px;line-height:1.25;font-family:'Albert Sans';-inkscape-font-specification:'Albert Sans Ultra-Bold';word-spacing:0;fill:#0375e5;fill-opacity:1;stroke-width:1.71709"><g style="fill:#0375e5;fill-opacity:1"><g style="font-weight:800;font-size:40.1327px;line-height:1.25;font-family:'Albert Sans';-inkscape-font-specification:'Albert Sans Ultra-Bold';word-spacing:0;fill:#0375e5;fill-opacity:1;stroke-width:1.00332"><g style="fill:#0375e5;fill-opacity:1" aria-label="TERUS MENGUDARA UNTUK INDONESIA"><g style="font-weight:700;font-size:58.7338px;line-height:1.25;font-family:'Albert Sans';-inkscape-font-specification:'Albert Sans Bold';word-spacing:0;fill:#0375e5;fill-opacity:1;stroke-width:1.46836"><g style="fill:#0375e5;fill-opacity:1" aria-label="JARINGAN BERITA NASIONAL"><g style="font-weight:700;font-size:87.6668px;line-height:1.25;font-family:'Warner Bros. Bold Cond';-inkscape-font-specification:'Warner Bros. Bold Cond Bold';word-spacing:0;fill:#0375e5;fill-opacity:1;stroke-width:2.19167"><g style="fill:#0375e5;fill-opacity:1" aria-label="PRO"><g style="font-weight:800;font-size:40.1327px;line-height:1.25;font-family:'Albert Sans';-inkscape-font-specification:'Albert Sans Ultra-Bold';word-spacing:0;fill:#0375e5;fill-opacity:1;stroke-width:1.00332"><g style="fill:#0375e5;fill-opacity:1"><g style="font-weight:700;font-size:87.6668px;line-height:1.25;font-family:'Warner Bros. Bold Cond';-inkscape-font-specification:'Warner Bros. Bold Cond Bold';word-spacing:0;fill:#0375e5;fill-opacity:1;stroke-width:2.19167"><g style="fill:#0375e5;fill-opacity:1"><g style="font-weight:700;font-size:39.8684px;line-height:1.25;font-family:'Warner Bros Sans';-inkscape-font-specification:'Warner Bros Sans Bold';word-spacing:0;fill:#0375e5;fill-opacity:1;stroke-width:.99671"><g data-name="Layer 2" style="fill:#0375e5;fill-opacity:1" aria-label="SEKALI DI UDARA , TETAP DI UDARA"><g style="fill:#0375e5;fill-opacity:1" data-name="Layer 1"><path d="M0 82.57h74.89v186.17H0Z" class="cls-1" style="fill:#0375e5;fill-opacity:1" transform="matrix(.18976 0 0 .18871 .022 .487)"/><path d="M158.472 82.56v79.948h-76.07a76.08 79.948 0 0 1 76.07-79.948z" class="cls-1" style="fill:#0375e5;fill-opacity:1;stroke-width:1.01892" transform="matrix(.18976 0 0 .18871 .022 .487)"/><path d="M187.32 82.57h74.89v186.17h-74.89zm261.68 0a74.88 74.88 0 0 0-74.89 74.88v111.29H449ZM374.14 0h74.89v74.89h-74.89ZM354 120.71a42 42 0 1 1-42-41.95 41.8 41.8 0 0 1 42 41.95z" class="cls-1" style="fill:#0375e5;fill-opacity:1" transform="matrix(.18976 0 0 .18871 .022 .487)"/></g></g></g></g></g></g></g></g></g></g></g></g></g></g></g></g><g style="font-weight:800;font-size:406.268px;line-height:1.25;font-family:Gilroy;-inkscape-font-specification:'Gilroy Ultra-Bold';word-spacing:0;fill:#ff1515;fill-opacity:1;stroke-width:10.1567"><path d="m133 28.208-11.235 14.27c4.209 1.482 7.551 3.829 10.027 7.041 2.538 3.15 3.807 6.857 3.807 11.119 0 6.795-2.29 12.107-6.87 15.937-4.581 3.83-10.183 5.744-16.806 5.744-5.262 0-9.904-1.173-13.928-3.52-4.023-2.41-6.963-5.869-8.82-10.378l12.813-7.413c1.61 4.572 4.92 6.857 9.935 6.857 3.652.247 6.252-.896 7.799-3.428 1.547-2.533 1.547-5.066 0-7.598-1.547-2.533-4.147-3.675-7.8-3.428h-3.063l-6.918-8.357c9.884-11.15 16.894-19.523 24.552-28.806l6.506-.085z" style="fill:#ff1515;fill-opacity:1;stroke-width:2.31882" aria-label="3" transform="matrix(1.00103 0 0 1 -.14 -.275)"/></g><path d="m91.264 30.578.028-14.49 27.74-.022c.02 8.091-6.74 14.512-15.178 14.512z" style="font-weight:800;font-size:40.1327px;line-height:1.25;font-family:'Albert Sans';-inkscape-font-specification:'Albert Sans Ultra-Bold';word-spacing:0;fill:#ff1515;fill-opacity:1;stroke-width:10.1448" transform="matrix(1.00103 0 0 1 -.14 -.275)"/><g style="font-weight:700;font-size:87.6668px;line-height:1.25;font-family:'Warner Bros. Bold Cond';-inkscape-font-specification:'Warner Bros. Bold Cond Bold';word-spacing:0;fill:#ff1515;fill-opacity:1;stroke-width:2.19167"><g style="fill:#ff1515;fill-opacity:1"><g style="font-weight:700;font-size:87.6668px;line-height:1.25;font-family:'Warner Bros. Bold Cond';-inkscape-font-specification:'Warner Bros. Bold Cond Bold';word-spacing:0;fill:#ff1515;fill-opacity:1;stroke-width:2.19167"><path d="M623.7 95.617q1.052-.526 3.682-1.753 2.718-1.227 5.523-2.98 2.805-1.842 4.91-4.121 2.19-2.28 2.19-4.822 0-3.068-2.19-4.909-2.105-1.929-7.277-1.929H623.7Zm4.033-31.384q5.172 0 9.643.876 4.47.79 7.715 2.718 3.33 1.841 5.26 4.997 1.928 3.068 1.928 7.715 0 4.12-1.665 7.451-1.578 3.332-4.208 6.05-2.63 2.717-5.874 4.821-3.244 2.104-6.4 3.77-3.156 1.665-5.961 2.98-2.805 1.228-4.471 2.28v17.708h-12.273V64.233Z" style="fill:#ff1515;fill-opacity:1" transform="matrix(.19985 0 0 .21149 -31.013 -13.285)"/></g><g style="fill:#ff1515;fill-opacity:1"><path d="M2255.94 558.211v125.437h31.02c36.53 0 53.29-15.617 53.29-38.359 0-48.129-84.31-87.078-84.31-87.078zm149.35 92.641c0 64.179-58.27 90.609-133.47 90.609h-80.94V404.219h65.06v80.742c10.25 7.617 29.66 19.687 48.24 32.43l55.89-113.172h68.42l-73.79 152.742c28.02 26.129 50.59 57.66 50.59 93.891m163.78 37.566c48.21 0 62.31-58.527 62.31-115.629 0-57.051-14.1-115.621-62.31-115.621-48.16 0-62.26 58.57-62.26 115.621 0 57.102 14.1 115.629 62.26 115.629zm0-291.469c86.72 0 127.32 82.071 127.32 175.84 0 93.672-40.6 175.891-127.32 175.891s-127.32-82.219-127.32-175.891c0-93.769 40.6-175.84 127.32-175.84" style="fill:#ff1515;fill-opacity:1;fill-rule:nonzero;stroke:none" transform="matrix(.03629 0 0 -.03842 21.477 28.809)"/></g></g></g></svg>