<svg xml:space="preserve" width="512.482" height="339.872" viewBox="0 0 135.594 89.924" xmlns="http://www.w3.org/2000/svg"><g style="font-weight:700;font-size:49.2448px;line-height:1.25;font-family:&quot;Albert Sans&quot;;-inkscape-font-specification:&quot;Albert Sans Bold&quot;;word-spacing:0;fill:#e57521;fill-opacity:1;stroke-width:2.69822"><path d="M253.529 54.02h58.85v274.89h-58.85V54.019Z" style="fill:#e57521;fill-opacity:1;stroke-width:.993586" transform="matrix(.26437 0 0 .2623 53.014 3.781)"/><g aria-label="PADANG" style="font-size:18.3948px;fill:#000;stroke-width:.745457"><path d="M5.534 65.54q.662 0 1.085-.201.423-.203.625-.59.221-.404.221-.937 0-.791-.478-1.251-.46-.46-1.453-.46h-2.63v3.44zm4.819-1.728q0 .754-.276 1.49-.257.717-.828 1.324-.551.589-1.453.938-.883.35-2.115.35H2.903v4.69H.07V59.728h5.61q1.564 0 2.594.57 1.049.552 1.564 1.49.515.92.515 2.024zM17.03 62.101h-.643l-3.68 10.503H9.784l4.654-12.876h4.598l4.636 12.876h-2.925zm-4.138 5.353h7.505v2.373h-7.505zM29.943 59.728q2.06 0 3.57.81 1.526.79 2.372 2.262.846 1.453.846 3.385 0 1.931-.846 3.384-.846 1.435-2.373 2.245-1.508.79-3.569.79h-5.021V59.728Zm-.147 10.504q1.932 0 2.98-1.086 1.067-1.085 1.067-2.961 0-1.895-1.067-2.98-1.048-1.104-2.98-1.104h-2.041v8.13zM44.678 62.101h-.644l-3.679 10.503H37.43l4.654-12.876h4.599l4.635 12.876h-2.925zm-4.14 5.353h7.506v2.373h-7.505zM63.496 59.728v12.876h-2.87l-5.224-8.37v8.37h-2.833V59.728h2.87l5.205 8.407v-8.407zM75.01 63.885q-.533-.975-1.36-1.416-.81-.46-1.822-.46-1.066 0-1.931.552-.846.533-1.343 1.472-.478.938-.478 2.133 0 1.251.478 2.19.478.919 1.343 1.452.865.516 2.023.516.718 0 1.325-.24.607-.257 1.085-.699.478-.441.81-1.011v-.81h-3.312V65.32h5.979v3.569q-.442 1.011-1.288 1.894-.846.865-2.042 1.417-1.195.533-2.722.533-1.435 0-2.63-.478-1.196-.478-2.08-1.361-.882-.883-1.379-2.079-.478-1.214-.478-2.649 0-1.434.478-2.63.497-1.214 1.361-2.097.883-.883 2.08-1.361 1.195-.479 2.63-.479 1.342 0 2.52.423 1.195.424 2.078 1.233.883.79 1.306 1.931z" style="font-weight:800;-inkscape-font-specification:'Albert Sans Ultra-Bold'" transform="scale(.98722 1.01295)"/></g><g aria-label="97.5 FM" style="font-size:16.3608px;fill:#000;stroke-width:.663036"><path d="M4.366 76.923q1.245 0 2.224.532.996.533 1.56 1.464.58.932.58 2.13 0 .931-.381 1.88-.365.948-1.145 1.946l-2.937 3.81H1.81l3.452-4.41L7.42 81.98q-.282 1.314-1.228 2.096-.93.766-2.24.766-1.113 0-2.009-.466-.88-.483-1.394-1.348-.514-.865-.514-2.03 0-1.197.58-2.112.581-.915 1.56-1.43.98-.533 2.191-.533Zm2.091 4.076q0-.666-.249-1.148-.249-.483-.73-.749-.465-.266-1.112-.266-.664 0-1.128.266-.448.266-.697.749-.233.482-.233 1.148 0 .649.233 1.13.249.483.697.75.464.266 1.128.266.647 0 1.112-.266.481-.267.73-.75.25-.481.25-1.13zM18.074 77.04v1.68l-4.448 9.964h-2.29l4.498-9.765h-5.76v-1.88ZM20.862 88.8q-.614 0-1.012-.382-.382-.4-.382-.948 0-.566.382-.948.398-.4 1.012-.4.597 0 .98.4.397.382.397.948 0 .549-.398.948-.382.383-.98.383zM31.666 77.04v1.88h-5.228v2.794q.332-.416.88-.665.564-.25 1.344-.25 1.029 0 1.759.366t1.178.948q.465.566.664 1.248.216.682.216 1.314 0 1.198-.515 2.13-.498.931-1.444 1.463-.929.533-2.24.533-1.294 0-2.224-.433-.912-.449-1.444-1.214-.514-.765-.63-1.747h2.19q.15.649.68 1.065.532.416 1.395.416.68 0 1.112-.266.431-.267.63-.75.216-.498.216-1.18 0-.965-.514-1.497-.515-.533-1.46-.533-.714 0-1.212.383-.481.366-.664.931h-2.157V77.04ZM36.69 77.02h8.164v1.879H38.93v2.961h4.43v1.813h-4.43v4.991h-2.24zM48.754 88.664h-2.24V77.02h2.555l3.701 8.717 3.7-8.717h2.557v11.645h-2.24v-7.52l-3.137 7.52h-1.76l-3.136-7.52z"/></g></g><g style="font-weight:700;font-size:49.2448px;line-height:1.25;font-family:&quot;Albert Sans&quot;;-inkscape-font-specification:&quot;Albert Sans Bold&quot;;word-spacing:0;fill:#e57521;fill-opacity:1;stroke-width:2.69822"><path d="M623.7 95.617q1.052-.526 3.682-1.753 2.718-1.227 5.523-2.98 2.805-1.842 4.91-4.121 2.19-2.28 2.19-4.822 0-3.068-2.19-4.909-2.105-1.929-7.277-1.929H623.7Zm4.033-31.384q5.172 0 9.643.876 4.47.79 7.715 2.718 3.33 1.841 5.26 4.997 1.928 3.068 1.928 7.715 0 4.12-1.665 7.451-1.578 3.332-4.208 6.05-2.63 2.717-5.874 4.821-3.244 2.104-6.4 3.77-3.156 1.665-5.961 2.98-2.805 1.228-4.471 2.28v17.708h-12.273V64.233Z" style="fill:#e57521;fill-opacity:1" transform="matrix(.22009 0 0 .23231 -35.645 -14.515)"/><path d="M4867.76 1672.528v136.024h32.48c38.25 0 55.799-16.935 55.799-41.596 0-52.191-88.279-94.427-88.279-94.427zm156.381 100.46c0 69.596-61.013 98.256-139.754 98.256h-84.751v-365.705h68.123v87.557c10.733 8.26 31.056 21.349 50.511 35.167l58.521-122.724h71.641l-77.264 165.633c29.339 28.334 52.972 62.527 52.972 101.815m171.492 40.737c50.48 0 65.244-63.467 65.244-125.388 0-61.866-14.764-125.379-65.244-125.379-50.427 0-65.191 63.513-65.191 125.379 0 61.921 14.764 125.388 65.191 125.388zm0-316.069c90.803 0 133.314 88.998 133.314 190.681 0 101.578-42.511 190.736-133.314 190.736s-133.314-89.158-133.314-190.736c0-101.683 42.511-190.681 133.314-190.681" style="fill:#e57521;fill-opacity:1" transform="matrix(.03816 0 0 -.03892 -73.46 73.263)"/></g><path fill="#e47521" d="M117.694 18.742c.084 6.965-.57 12.896-5.345 18.21-3.008 2.898-8.569 5.303-13.366 7.476l-.053-16.65 9.014-4.517 1.83-.96 1.623-.801c2.371-1.269 4.446-2.279 6.292-3.18z" style="font-weight:700;font-size:49.2448px;line-height:1.25;font-family:&quot;Albert Sans&quot;;-inkscape-font-specification:&quot;Albert Sans Bold&quot;;word-spacing:0;fill:#e57521;fill-opacity:1;stroke-width:.245302"/><g style="font-weight:700;font-size:49.2448px;line-height:1.25;font-family:&quot;Albert Sans&quot;;-inkscape-font-specification:&quot;Albert Sans Bold&quot;;word-spacing:0;fill:#0375e5;fill-opacity:1;stroke-width:2.69822"><g style="font-weight:800;font-size:68.6834px;line-height:1.25;font-family:&quot;Albert Sans&quot;;-inkscape-font-specification:&quot;Albert Sans Ultra-Bold&quot;;word-spacing:0;fill:#0375e5;fill-opacity:1;stroke-width:1.71709"><g style="fill:#0375e5;fill-opacity:1"><g style="font-weight:800;font-size:40.1327px;line-height:1.25;font-family:&quot;Albert Sans&quot;;-inkscape-font-specification:&quot;Albert Sans Ultra-Bold&quot;;word-spacing:0;fill:#0375e5;fill-opacity:1;stroke-width:1.00332"><g style="fill:#0375e5;fill-opacity:1"><g style="font-weight:700;font-size:58.7338px;line-height:1.25;font-family:&quot;Albert Sans&quot;;-inkscape-font-specification:&quot;Albert Sans Bold&quot;;word-spacing:0;fill:#0375e5;fill-opacity:1;stroke-width:1.46836"><g style="fill:#0375e5;fill-opacity:1"><g style="font-weight:700;font-size:87.6668px;line-height:1.25;font-family:&quot;Warner Bros. Bold Cond&quot;;-inkscape-font-specification:&quot;Warner Bros. Bold Cond Bold&quot;;word-spacing:0;fill:#0375e5;fill-opacity:1;stroke-width:2.19167" aria-label="TERUS MENGUDARA UNTUK INDONESIA"><g style="fill:#0375e5;fill-opacity:1"><g style="font-weight:800;font-size:40.1327px;line-height:1.25;font-family:&quot;Albert Sans&quot;;-inkscape-font-specification:&quot;Albert Sans Ultra-Bold&quot;;word-spacing:0;fill:#0375e5;fill-opacity:1;stroke-width:1.00332" aria-label="JARINGAN BERITA NASIONAL"><g style="fill:#0375e5;fill-opacity:1"><g style="font-weight:700;font-size:87.6668px;line-height:1.25;font-family:&quot;Warner Bros. Bold Cond&quot;;-inkscape-font-specification:&quot;Warner Bros. Bold Cond Bold&quot;;word-spacing:0;fill:#0375e5;fill-opacity:1;stroke-width:2.19167" aria-label="PRO"><g style="fill:#0375e5;fill-opacity:1"><g style="font-weight:700;font-size:39.8684px;line-height:1.25;font-family:&quot;Warner Bros Sans&quot;;-inkscape-font-specification:&quot;Warner Bros Sans Bold&quot;;word-spacing:0;fill:#0375e5;fill-opacity:1;stroke-width:.99671"><g data-name="Layer 2" style="fill:#0375e5;fill-opacity:1"><g aria-label="SEKALI DI UDARA , TETAP DI UDARA" data-name="Layer 1" style="fill:#0375e5;fill-opacity:1"><path d="M0 82.57h74.89v186.17H0Z" class="cls-1" style="fill:#0375e5;fill-opacity:1" transform="matrix(.20993 0 0 .20784 .017 .453)"/><path d="M158.472 82.56v79.948h-76.07a76.08 79.948 0 0 1 76.07-79.948z" class="cls-1" style="fill:#0375e5;fill-opacity:1;stroke-width:1.01892" transform="matrix(.20993 0 0 .20784 .017 .453)"/><path d="M187.32 82.57h74.89v186.17h-74.89zm261.68 0a74.88 74.88 0 0 0-74.89 74.88v111.29H449ZM374.14 0h74.89v74.89h-74.89ZM354 120.71a42 42 0 1 1-42-41.95 41.8 41.8 0 0 1 42 41.95z" class="cls-1" style="fill:#0375e5;fill-opacity:1" transform="matrix(.20993 0 0 .20784 .017 .453)"/></g></g></g></g></g></g></g></g></g></g></g></g></g></g></g></g></svg>