<svg xml:space="preserve" width="513.233" height="306.697" viewBox="0 0 135.793 81.147" xmlns="http://www.w3.org/2000/svg"><g fill="#602bb7"><path d="M94.96 6.495q.203-.104.714-.349.528-.244 1.072-.593.544-.366.953-.82.425-.454.425-.96 0-.61-.425-.977-.409-.384-1.412-.384h-1.328ZM95.74.25q1.004 0 1.871.174.869.158 1.498.541.647.367 1.02.995.376.61.376 1.535 0 .82-.324 1.483-.306.663-.816 1.204-.51.541-1.14.96-.63.419-1.243.75-.612.332-1.157.593-.544.245-.868.454v3.525h-2.38V.249Zm8.64 6.643V2.357h1.093c1.287 0 1.878.564 1.878 1.387 0 1.74-2.971 3.149-2.971 3.149zm5.262-3.35c0-2.321-2.053-3.277-4.702-3.277h-2.854v12.195h2.294v-2.92c.36-.275 1.045-.711 1.7-1.172l1.97 4.092h2.41l-2.6-5.523c.988-.945 1.783-2.085 1.783-3.395m5.772-1.359c1.699 0 2.196 2.117 2.196 4.182 0 2.063-.497 4.18-2.196 4.18-1.698 0-2.194-2.117-2.194-4.18 0-2.065.496-4.182 2.194-4.182zm0 10.54c3.056 0 4.487-2.968 4.487-6.358 0-3.388-1.43-6.36-4.487-6.36-3.057 0-4.487 2.972-4.487 6.36 0 3.39 1.43 6.358 4.487 6.358"/><path d="m281.058 249.33-.06 54.627-105.027-.02c-.454-29.186 22.115-54.604 55.41-54.604zm-133.632 54.611-39.26-.004-.136-40.543 86.708-86.89c16.35-17.603 24.526-32.349 24.526-44.242 0-7.85-3.582-16.144-8.187-20.901-4.608-4.994-13.046-7.197-21.106-7.197-16.12 0-28.61 8.719-36.208 26.795l-45.708-27.272c7.369-17.364 18.309-30.804 32.817-40.318s30.3-13.953 48.263-13.953c27.173.205 51.486 7.413 65.182 24.208 40.251 50.606 10.894 100.735-38.59 151.787-23.895 26.49-48.176 54.45-68.303 78.53z" style="stroke-width:.954765" transform="matrix(.26471 0 0 .26458 61.41 .785)"/></g><g style="fill:#0375e5;fill-opacity:1"><g style="font-weight:800;font-size:68.6834px;line-height:1.25;font-family:&quot;Albert Sans&quot;;-inkscape-font-specification:&quot;Albert Sans Ultra-Bold&quot;;word-spacing:0;fill:#0375e5;fill-opacity:1;stroke-width:1.71709"><g style="fill:#0375e5;fill-opacity:1"><g style="font-weight:800;font-size:40.1327px;line-height:1.25;font-family:&quot;Albert Sans&quot;;-inkscape-font-specification:&quot;Albert Sans Ultra-Bold&quot;;word-spacing:0;fill:#0375e5;fill-opacity:1;stroke-width:1.00332"><g style="fill:#0375e5;fill-opacity:1"><g style="font-weight:700;font-size:58.7338px;line-height:1.25;font-family:&quot;Albert Sans&quot;;-inkscape-font-specification:&quot;Albert Sans Bold&quot;;word-spacing:0;fill:#0375e5;fill-opacity:1;stroke-width:1.46836"><g style="fill:#0375e5;fill-opacity:1" aria-label="TERUS MENGUDARA UNTUK INDONESIA"><g style="font-weight:700;font-size:87.6668px;line-height:1.25;font-family:&quot;Warner Bros. Bold Cond&quot;;-inkscape-font-specification:&quot;Warner Bros. Bold Cond Bold&quot;;word-spacing:0;fill:#0375e5;fill-opacity:1;stroke-width:2.19167"><g style="fill:#0375e5;fill-opacity:1" aria-label="JARINGAN BERITA NASIONAL"><g style="font-weight:800;font-size:40.1327px;line-height:1.25;font-family:&quot;Albert Sans&quot;;-inkscape-font-specification:&quot;Albert Sans Ultra-Bold&quot;;word-spacing:0;fill:#0375e5;fill-opacity:1;stroke-width:1.00332"><g style="fill:#0375e5;fill-opacity:1" aria-label="PRO"><g style="font-weight:700;font-size:87.6668px;line-height:1.25;font-family:&quot;Warner Bros. Bold Cond&quot;;-inkscape-font-specification:&quot;Warner Bros. Bold Cond Bold&quot;;word-spacing:0;fill:#0375e5;fill-opacity:1;stroke-width:2.19167"><g style="fill:#0375e5;fill-opacity:1"><g style="font-weight:700;font-size:39.8684px;line-height:1.25;font-family:&quot;Warner Bros Sans&quot;;-inkscape-font-specification:&quot;Warner Bros Sans Bold&quot;;word-spacing:0;fill:#0375e5;fill-opacity:1;stroke-width:.99671"><g data-name="Layer 2" style="fill:#0375e5;fill-opacity:1"><g aria-label="SEKALI DI UDARA , TETAP DI UDARA" data-name="Layer 1" style="fill:#0375e5;fill-opacity:1"><path d="M0 82.57h74.89v186.17H0Z" class="cls-1" style="fill:#0375e5;fill-opacity:1" transform="matrix(.19096 0 0 .18871 .016 .24)"/><path d="M158.472 82.56v79.948h-76.07a76.08 79.948 0 0 1 76.07-79.948z" class="cls-1" style="fill:#0375e5;fill-opacity:1;stroke-width:1.01892" transform="matrix(.19096 0 0 .18871 .016 .24)"/><path d="M187.32 82.57h74.89v186.17h-74.89zm261.68 0a74.88 74.88 0 0 0-74.89 74.88v111.29H449ZM374.14 0h74.89v74.89h-74.89ZM354 120.71a42 42 0 1 1-42-41.95 41.8 41.8 0 0 1 42 41.95z" class="cls-1" style="fill:#0375e5;fill-opacity:1" transform="matrix(.19096 0 0 .18871 .016 .24)"/></g></g></g></g></g></g></g></g></g></g></g></g></g></g></g></g><g aria-label="BUKITTINGGI" style="font-weight:700;font-size:12.9713px;font-family:'Albert Sans';-inkscape-font-specification:'Albert Sans Bold';stroke-width:.583534"><path d="M5.461 57.094q0-.506-.324-.752-.324-.247-.921-.247H2.128v1.998h2.075q.597 0 .92-.247.338-.246.338-.752zM.13 63.502v-9.08h4.436q.947 0 1.596.311.648.299.985.843.35.532.35 1.233 0 .61-.233 1.024-.22.402-.622.649-.39.233-.896.324v.104q.61.078 1.051.337.441.26.675.714.233.44.233 1.076 0 .727-.35 1.284-.35.558-1.012.87-.661.31-1.621.31zm1.998-1.673h2.27q.61 0 .946-.273.35-.272.35-.791 0-.545-.363-.804-.363-.273-.972-.273H2.128ZM8.99 54.422H11v5.668q0 .571.233.986.234.402.636.61.415.194.96.194.558 0 .973-.194.428-.208.661-.61.234-.415.234-.986v-5.668h2.01v5.513q0 .92-.324 1.608-.311.688-.87 1.142-.544.454-1.244.687-.7.22-1.466.22-1.025 0-1.894-.402t-1.4-1.206q-.52-.817-.52-2.05zM18.264 54.422h1.997v3.632h.584l2.996-3.632h2.4l-3.632 4.462 3.749 4.618H23.84l-2.996-3.762h-.584v3.762h-1.997zM27.279 54.422h1.997v9.08H27.28zM30.47 54.422h7.627v1.673h-2.815v7.407h-1.997v-7.407H30.47zM38.901 54.422h7.627v1.673h-2.815v7.407h-1.997v-7.407H38.9zM47.735 54.422h1.997v9.08h-1.997zM59.033 54.422v9.08h-2.024L53.325 57.6v5.902h-1.997v-9.08h2.023l3.671 5.928v-5.928zM67.153 57.353q-.377-.687-.96-.998-.571-.325-1.284-.325-.753 0-1.362.39-.597.376-.947 1.037-.338.662-.338 1.505 0 .882.338 1.543.337.649.947 1.025.61.363 1.426.363.506 0 .934-.168.428-.182.766-.493.337-.311.57-.714v-.57H64.91v-1.583h4.215v2.517q-.311.713-.908 1.336-.596.61-1.44.998-.843.377-1.92.377-1.011 0-1.854-.338-.843-.337-1.466-.96-.623-.622-.973-1.465-.337-.856-.337-1.868t.337-1.855q.35-.856.96-1.479.623-.622 1.466-.96.843-.337 1.855-.337.947 0 1.777.298.843.299 1.466.87.622.557.92 1.361zM76.933 57.353q-.376-.687-.96-.998-.57-.325-1.284-.325-.752 0-1.362.39-.597.376-.947 1.037-.337.662-.337 1.505 0 .882.337 1.543.337.649.947 1.025.61.363 1.427.363.506 0 .934-.168.428-.182.765-.493t.57-.714v-.57H74.69v-1.583h4.216v2.517q-.312.713-.908 1.336-.597.61-1.44.998-.843.377-1.92.377-1.012 0-1.855-.338-.843-.337-1.466-.96-.622-.622-.972-1.465-.338-.856-.338-1.868t.338-1.855q.35-.856.96-1.479.622-.622 1.465-.96.843-.337 1.855-.337.947 0 1.777.298.843.299 1.466.87.623.557.92 1.361zM80.189 54.422h1.997v9.08H80.19z" style="font-weight:800;-inkscape-font-specification:'Albert Sans Ultra-Bold'" transform="matrix(.97403 0 0 1.0204 -.122 -.321)"/></g><g aria-label="94.8 FM" style="font-weight:700;font-size:12.9713px;font-family:'Albert Sans';-inkscape-font-specification:'Albert Sans Bold';stroke-width:.583534"><path d="M3.327 68.227q.947 0 1.693.424.758.423 1.187 1.164.442.742.442 1.695 0 .74-.29 1.495-.278.755-.872 1.549l-2.236 3.03H1.38l2.628-3.507 1.642-1.826q-.214 1.045-.935 1.668-.707.608-1.705.608-.847 0-1.529-.37-.67-.384-1.061-1.072-.392-.689-.392-1.615 0-.953.442-1.681.442-.728 1.188-1.138.745-.424 1.668-.424zm1.592 3.243q0-.53-.19-.913-.19-.384-.556-.596-.354-.212-.846-.212-.506 0-.86.212-.34.212-.53.596-.177.383-.177.913 0 .516.177.9.19.384.53.596.354.211.86.211.492 0 .846-.211.367-.212.556-.596.19-.384.19-.9zM12.108 75.626H7.66v-1.35l4.144-5.956h2.01v5.81h1.111v1.496h-1.112v1.959h-1.705zm.075-1.496v-3.904l-2.64 3.904zM17.2 77.678q-.468 0-.772-.305-.29-.318-.29-.754 0-.45.29-.755.304-.317.771-.317.455 0 .746.317.303.305.303.755 0 .436-.303.754-.291.305-.746.305zM21.002 72.674q-.568-.278-.922-.767-.341-.503-.341-1.258 0-.662.328-1.204.341-.556 1.024-.887.682-.33 1.73-.33 1.05 0 1.731.33.683.33 1.024.887.34.542.34 1.204 0 .715-.365 1.244-.354.517-.898.781.695.292 1.087.874.404.582.404 1.39 0 .86-.442 1.469-.43.609-1.175.94-.745.33-1.706.33-.947 0-1.693-.33-.745-.331-1.187-.94-.43-.609-.43-1.47 0-.807.405-1.39.404-.595 1.086-.873zm3.184-1.786q0-.636-.354-.914t-1.01-.278q-.632 0-.999.278-.366.265-.366.914 0 .582.366.926.38.344.998.344.632 0 .999-.344.366-.357.366-.926zm-1.365 2.54q-.467 0-.82.16-.355.158-.557.476-.202.318-.202.794 0 .636.392.993.404.357 1.187.357.784 0 1.188-.357.404-.37.404-.993 0-.463-.202-.78-.19-.318-.543-.477-.354-.172-.847-.172zM31.16 68.32h6.216v1.495h-4.51v2.356h3.373v1.443h-3.373v3.97H31.16ZM40.345 77.585H38.64V68.32h1.945l2.818 6.935 2.817-6.935h1.946v9.265H46.46v-5.983l-2.387 5.983h-1.34l-2.388-5.983z"/></g></svg>