<svg xml:space="preserve" width="512.436" height="340.087" viewBox="0 0 135.582 89.981" xmlns="http://www.w3.org/2000/svg"><g style="font-weight:700;font-size:49.2448px;line-height:1.25;font-family:'Albert Sans';-inkscape-font-specification:'Albert Sans Bold';word-spacing:0;fill:#e57521;fill-opacity:1;stroke-width:2.69822"><path d="M253.529 54.02h58.85v274.89h-58.85V54.019Z" style="fill:#e57521;fill-opacity:1;stroke-width:.993586" transform="matrix(.26437 0 0 .2623 53.014 3.781)"/></g><g style="font-weight:700;font-size:49.2448px;line-height:1.25;font-family:'Albert Sans';-inkscape-font-specification:'Albert Sans Bold';word-spacing:0;fill:#e57521;fill-opacity:1;stroke-width:2.69822"><path d="M623.7 95.617q1.052-.526 3.682-1.753 2.718-1.227 5.523-2.98 2.805-1.842 4.91-4.121 2.19-2.28 2.19-4.822 0-3.068-2.19-4.909-2.105-1.929-7.277-1.929H623.7Zm4.033-31.384q5.172 0 9.643.876 4.47.79 7.715 2.718 3.33 1.841 5.26 4.997 1.928 3.068 1.928 7.715 0 4.12-1.665 7.451-1.578 3.332-4.208 6.05-2.63 2.717-5.874 4.821-3.244 2.104-6.4 3.77-3.156 1.665-5.961 2.98-2.805 1.228-4.471 2.28v17.708h-12.273V64.233Z" style="fill:#e57521;fill-opacity:1" transform="matrix(.22009 0 0 .23231 -35.645 -14.515)"/><path d="M4867.76 1672.528v136.024h32.48c38.25 0 55.799-16.935 55.799-41.596 0-52.191-88.279-94.427-88.279-94.427zm156.381 100.46c0 69.596-61.013 98.256-139.754 98.256h-84.751v-365.705h68.123v87.557c10.733 8.26 31.056 21.349 50.511 35.167l58.521-122.724h71.641l-77.264 165.633c29.339 28.334 52.972 62.527 52.972 101.815m171.492 40.737c50.48 0 65.244-63.467 65.244-125.388 0-61.866-14.764-125.379-65.244-125.379-50.427 0-65.191 63.513-65.191 125.379 0 61.921 14.764 125.388 65.191 125.388zm0-316.069c90.803 0 133.314 88.998 133.314 190.681 0 101.578-42.511 190.736-133.314 190.736s-133.314-89.158-133.314-190.736c0-101.683 42.511-190.681 133.314-190.681" style="fill:#e57521;fill-opacity:1" transform="matrix(.03816 0 0 -.03892 -73.46 73.263)"/></g><path fill="#e47521" d="M117.694 18.742c.084 6.965-.57 12.896-5.345 18.21-3.008 2.898-8.569 5.303-13.366 7.476l-.053-16.65 9.014-4.517 1.83-.96 1.623-.801c2.371-1.269 4.446-2.279 6.292-3.18z" style="font-weight:700;font-size:49.2448px;line-height:1.25;font-family:'Albert Sans';-inkscape-font-specification:'Albert Sans Bold';word-spacing:0;fill:#e57521;fill-opacity:1;stroke-width:.245302"/><g style="font-weight:700;font-size:49.2448px;line-height:1.25;font-family:'Albert Sans';-inkscape-font-specification:'Albert Sans Bold';word-spacing:0;fill:#0375e5;fill-opacity:1;stroke-width:2.69822"><g style="font-weight:800;font-size:68.6834px;line-height:1.25;font-family:'Albert Sans';-inkscape-font-specification:'Albert Sans Ultra-Bold';word-spacing:0;fill:#0375e5;fill-opacity:1;stroke-width:1.71709"><g style="fill:#0375e5;fill-opacity:1"><g style="font-weight:800;font-size:40.1327px;line-height:1.25;font-family:'Albert Sans';-inkscape-font-specification:'Albert Sans Ultra-Bold';word-spacing:0;fill:#0375e5;fill-opacity:1;stroke-width:1.00332"><g style="fill:#0375e5;fill-opacity:1"><g style="font-weight:700;font-size:58.7338px;line-height:1.25;font-family:'Albert Sans';-inkscape-font-specification:'Albert Sans Bold';word-spacing:0;fill:#0375e5;fill-opacity:1;stroke-width:1.46836"><g style="fill:#0375e5;fill-opacity:1" aria-label="TERUS MENGUDARA UNTUK INDONESIA"><g style="font-weight:700;font-size:87.6668px;line-height:1.25;font-family:'Warner Bros. Bold Cond';-inkscape-font-specification:'Warner Bros. Bold Cond Bold';word-spacing:0;fill:#0375e5;fill-opacity:1;stroke-width:2.19167"><g style="fill:#0375e5;fill-opacity:1" aria-label="JARINGAN BERITA NASIONAL"><g style="font-weight:800;font-size:40.1327px;line-height:1.25;font-family:'Albert Sans';-inkscape-font-specification:'Albert Sans Ultra-Bold';word-spacing:0;fill:#0375e5;fill-opacity:1;stroke-width:1.00332"><g style="fill:#0375e5;fill-opacity:1" aria-label="PRO"><g style="font-weight:700;font-size:87.6668px;line-height:1.25;font-family:'Warner Bros. Bold Cond';-inkscape-font-specification:'Warner Bros. Bold Cond Bold';word-spacing:0;fill:#0375e5;fill-opacity:1;stroke-width:2.19167"><g style="fill:#0375e5;fill-opacity:1"><g style="font-weight:700;font-size:39.8684px;line-height:1.25;font-family:'Warner Bros Sans';-inkscape-font-specification:'Warner Bros Sans Bold';word-spacing:0;fill:#0375e5;fill-opacity:1;stroke-width:.99671"><g data-name="Layer 2" style="fill:#0375e5;fill-opacity:1"><g aria-label="SEKALI DI UDARA , TETAP DI UDARA" data-name="Layer 1" style="fill:#0375e5;fill-opacity:1"><path d="M0 82.57h74.89v186.17H0Z" class="cls-1" style="fill:#0375e5;fill-opacity:1" transform="matrix(.20993 0 0 .20784 .017 .453)"/><path d="M158.472 82.56v79.948h-76.07a76.08 79.948 0 0 1 76.07-79.948z" class="cls-1" style="fill:#0375e5;fill-opacity:1;stroke-width:1.01892" transform="matrix(.20993 0 0 .20784 .017 .453)"/><path d="M187.32 82.57h74.89v186.17h-74.89zm261.68 0a74.88 74.88 0 0 0-74.89 74.88v111.29H449ZM374.14 0h74.89v74.89h-74.89ZM354 120.71a42 42 0 1 1-42-41.95 41.8 41.8 0 0 1 42 41.95z" class="cls-1" style="fill:#0375e5;fill-opacity:1" transform="matrix(.20993 0 0 .20784 .017 .453)"/></g></g></g></g></g></g></g></g></g></g></g></g></g></g></g></g><g aria-label="MEDAN" style="font-weight:700;font-size:19.8371px;font-family:'Albert Sans';-inkscape-font-specification:'Albert Sans Bold';stroke-width:.892393"><path d="M3.052 72.985H-.003V59.099h3.55l4.127 9.899 4.126-9.9h3.57v13.887h-3.074v-8.45l-3.392 8.45h-2.46l-3.392-8.45zM27.888 61.658h-7.023v3.075h5.257v2.42h-5.257v3.273h7.023v2.559H17.81V59.099h10.078zM35.346 59.099q2.222 0 3.849.873 1.646.853 2.559 2.44.912 1.567.912 3.65t-.912 3.65q-.913 1.547-2.56 2.42-1.626.853-3.848.853h-5.415V59.099Zm-.158 11.327q2.083 0 3.213-1.17 1.15-1.17 1.15-3.194 0-2.044-1.15-3.214-1.13-1.19-3.213-1.19h-2.202v8.768zM51.236 61.658h-.694l-3.968 11.327H43.42l5.019-13.886h4.96l4.998 13.886h-3.154zm-4.463 5.772h8.093v2.56h-8.093zM71.53 59.099v13.886h-3.095L62.8 63.959v9.026h-3.055V59.099h3.095l5.614 9.065V59.1z" style="font-weight:800;-inkscape-font-specification:'Albert Sans Ultra-Bold'" transform="matrix(1.00006 0 0 1.01723 0 0)"/></g><g aria-label="94.3 FM" style="font-weight:700;font-size:16.096px;font-family:'Albert Sans';-inkscape-font-specification:'Albert Sans Bold';stroke-width:.724099"><path d="M4.184 77.797q1.185 0 2.118.538.948.537 1.486 1.478.553.94.553 2.15 0 .941-.363 1.899-.348.957-1.091 1.965l-2.798 3.848h-2.34l3.288-4.452 2.055-2.319q-.268 1.327-1.17 2.117-.885.773-2.133.773-1.06 0-1.913-.47-.838-.488-1.328-1.361-.49-.874-.49-2.05 0-1.21.553-2.133.553-.924 1.486-1.445.933-.538 2.087-.538zm1.992 4.116q0-.672-.238-1.16-.237-.486-.695-.755-.443-.269-1.06-.269-.632 0-1.074.269-.427.269-.664.756-.221.487-.221 1.16 0 .654.22 1.141.238.488.665.756.442.27 1.075.27.616 0 1.059-.27.458-.268.695-.756.238-.487.238-1.142zM15.17 87.188H9.606v-1.713l5.185-7.56h2.513v7.375h1.391v1.898h-1.39v2.487H15.17zm.095-1.898v-4.956l-3.304 4.956zM21.54 89.792q-.584 0-.964-.386-.363-.403-.363-.958 0-.571.363-.957.38-.404.965-.404.569 0 .932.404.38.386.38.957 0 .555-.38.958-.363.386-.932.386zM24.528 81.241q.048-1.125.538-1.881.506-.773 1.344-1.16.853-.403 1.96-.403 1.154 0 1.96.454.806.453 1.217 1.21.427.755.427 1.663 0 .688-.253 1.21-.253.503-.664.84-.411.318-.822.486v.067q.585.185 1.012.538.442.353.68.89.252.538.252 1.31 0 .992-.442 1.748-.427.74-1.265 1.16-.822.42-2.023.42-1.186 0-2.087-.37-.901-.37-1.423-1.176-.521-.824-.569-2.168h2.087q.032.908.49 1.344.458.437 1.454.437.57 0 .933-.185.364-.184.537-.537.174-.353.174-.857 0-.974-.6-1.294-.585-.319-1.85-.319h-.443v-1.814h.459q.664-.017 1.17-.135.506-.134.774-.436.285-.32.285-.874 0-.722-.38-1.193-.379-.487-1.154-.487-.569 0-.932.219-.348.218-.538.554-.19.336-.221.74zM38.55 77.915h7.777v1.898h-5.643v2.99h4.22v1.832h-4.22v5.04H38.55zM50.042 89.675h-2.134v-11.76h2.435l3.525 8.803 3.525-8.803h2.434v11.76h-2.134V82.08l-2.987 7.594H53.03l-2.988-7.594Z"/></g></svg>