<?xml version="1.0" encoding="utf-8"?>
<!-- Generator: Adobe Illustrator 13.0.0, SVG Export Plug-In . SVG Version: 6.00 Build 14948)  -->
<!DOCTYPE svg PUBLIC "-//W3C//DTD SVG 1.0//EN" "http://www.w3.org/TR/2001/REC-SVG-20010904/DTD/svg10.dtd" [
	<!ENTITY ns_flows "http://ns.adobe.com/Flows/1.0/">
	<!ENTITY ns_extend "http://ns.adobe.com/Extensibility/1.0/">
	<!ENTITY ns_ai "http://ns.adobe.com/AdobeIllustrator/10.0/">
	<!ENTITY ns_graphs "http://ns.adobe.com/Graphs/1.0/">
]>
<svg version="1.0" id="Layer_1" xmlns:x="&ns_extend;" xmlns:i="&ns_ai;" xmlns:graph="&ns_graphs;"
	 xmlns="http://www.w3.org/2000/svg" xmlns:xlink="http://www.w3.org/1999/xlink" xmlns:a="http://ns.adobe.com/AdobeSVGViewerExtensions/3.0/"
	 x="0px" y="0px" width="459.75px" height="229px" viewBox="0 0 459.75 229" enable-background="new 0 0 459.75 229"
	 xml:space="preserve">
<g>
	<path fill="#ED3538" d="M444.438,8.625c9.069,6.963,15.313,18.938,15.313,30.125c0,109.143,0,77.162,0,152.125
		c0,8.358-3.289,16.818-8.66,23.41C443.809,223.222,432.975,229,423.875,229c-87.563,0-290.219,0-387.25,0
		C18.375,229,0,210.625,0,190.688c0-45.806,0-120.351,0-152.5c0-9.04,4.754-19.407,12.375-26.875C19.454,4.375,29.065,0,38.125,0
		c95.891,0,383.563,0,383.563,0C428.31,0,437.426,3.242,444.438,8.625z"/>
	<rect x="183.5" y="19.125" fill="#FCEE2B" width="86.813" height="8.438"/>
	<rect x="183.5" y="36.74" fill="#FCEE2B" width="86.813" height="8.438"/>
	<path fill="#FCEE2B" d="M194.458,184.848c2.888,2.888,0.334,9.74-7.703,17.271c-5.772,5.407-15.709,8.294-19.005,4.821
		c-3.278-3.453-0.063-11.083,7.215-17.363C182.875,182.75,191.468,181.857,194.458,184.848z"/>
	<path fill="#FCEE2B" d="M270.755,184.848c2.887,2.888,0.334,9.74-7.703,17.271c-5.772,5.407-15.71,8.294-19.006,4.821
		c-3.277-3.453-0.063-11.083,7.215-17.363C259.171,182.75,267.765,181.857,270.755,184.848z"/>
	<path fill="#FFFFFF" d="M98.917,65.709c-0.722-3.646-15.583-4.251-24.333-4.251c-8.25,0-22.709,0.173-23.5,4.251
		c-3.179,16.396-11.5,57.666-11.5,57.666h9.5l2.583-12.416c0,0,13.083,3.166,22.917,3.166c9.583,0,24.25-2.916,24.25-2.916
		l2.5,12.166h9.417C110.75,123.375,102.111,81.83,98.917,65.709z M75.208,105.333c-11.943,0-21.625-2.519-21.625-5.625
		s9.682-5.625,21.625-5.625c11.944,0,21.625,2.519,21.625,5.625S87.152,105.333,75.208,105.333z"/>
	<path fill="#FFFFFF" d="M161.875,109.375c15.5,0,23.208-3.75,23.208-7.167v-32.5c0-7.161-26.417-8.25-34.583-8.25
		c-7.469,0-22.938,0.477-30,2c-0.629,0.136-1.25,0.917-1.25,2.251c0,14.416,0,57.666,0,57.666h9.25V109.75c0,0,12.656,0,16.875,0
		c8.594,0,4.75,13.625,15.208,13.625c6.125,0,24.5,0,24.5,0v-9.334c0,0-15.688,0-20.917,0c-0.573,0-1.264-0.977-2.083-2.021
		C161.355,111.094,160.938,109.375,161.875,109.375z M150.5,100.656c-5.5,0-22,0-22,0v-8.875c0,0,12.436-0.344,17.938-0.344
		c12.25,0,29.406,0.219,29.406,4.625C175.844,99.094,168.438,100.656,150.5,100.656z"/>
	<path fill="#FFFFFF" d="M261,97.125V69.708c0-5.624-14.666-8.25-30.875-8.25c-9.917,0-24.46,0.751-33.75,2
		c-0.867,0.116-1,0.917-1,2.251v53.582c0,0.961-0.199,1.938,1,2.084c8.542,1.041,17.917,1.987,33.75,1.916
		c16.625-0.074,30.875-4.082,30.875-8.582v-6.668c0-1.291-3-3.582-8.979-4.645C254.688,102.313,261,100.209,261,97.125z
		 M230.25,113.959c-6.396,0-25.792,0-25.792,0v-7.75c0,0,19.396-0.125,25.792-0.125c6.334,0,20.959,0.291,20.959,3.625
		C251.209,113.541,236.375,113.959,230.25,113.959z M230.25,99.334c-6.396,0-25.792,0-25.792,0v-7.75c0,0,19.396-0.125,25.792-0.125
		c6.334,0,20.959,0.291,20.959,3.625C251.209,98.916,236.375,99.334,230.25,99.334z"/>
	<path fill="#FFFFFF" d="M271.417,117.541c0-12.93,0-37.832,0-51.832c0-1-0.098-2.052,1.166-2.251c7.915-1.247,22.25-2,30.75-2
		c11.25,0,30.002,1.669,32.917,2c1.063,0.12,0.917,1.315,0.917,2.251c0,6.416,0,25.666,0,25.666s-25.479,0-34.917,0
		c-9.563,0-21.417,1.5-21.417,4c0,2.875,11.167,4.084,21.417,4.084c8.729,0,34.917,0,34.917,0v6.75c0,0-26.188,0-34.917,0
		c-10.313,0-21.417,1.291-21.417,3.832c0,2.396,10.729,3.918,21.417,3.918c8.729,0,34.917,0,34.917,0s0,4.646,0,5.666
		c0,1.188-0.452,1.563-0.917,1.666c-7.385,1.637-23.125,1.918-32.917,1.918c-9.583,0-23.208-1.084-30.75-2.668
		C271.795,120.376,271.417,119.25,271.417,117.541z"/>
	<path fill="#FFFFFF" d="M347.5,65.709c0-1.709,0.225-2.139,0.813-2.251c8.239-1.565,21.875-2,32.813-2
		c9.382,0,25.983,0.525,31.688,2c0,0,0.563,1.104,0.563,2.251c0,6.463,0,25.854,0,25.854s-29.938,0-41.063,0
		c-10.625,0-15.438,2.313-15.438,3.938c0,1.938,7,4,15.438,4c10.563,0,27.234,0,36.313,0c2.042,0,4.625,1.959,4.625,4.625
		c0,3.219,0,9.656,0,12.875c0,2.709-2.417,5.686-34.188,6.25c-7.695,0.137-21.402-0.215-30.75-1.563
		c-0.463-0.066-0.813-0.521-0.813-1.688c0-3.458,0-5.938,0-5.938s31.781,0,42.375,0c7.188,0,14-1.875,14-3.813
		c0-3.645-10.813-4.063-14-4.063c-9.547,0-25.375,0-37.375,0c-3.625,0-5-1.875-5-4.438C347.5,92.754,347.5,75.063,347.5,65.709z"/>
	<polygon fill="#FFFFFF" points="147.25,141.042 147.25,133.875 119.75,133.875 119.75,167.209 132,167.209 132,154.125 
		146.667,154.125 146.667,147.042 132,147.042 132,141.042 	"/>
	<polygon fill="#FFFFFF" points="151,167.209 158.25,133.875 170.25,133.875 178.75,155.375 187.25,133.875 199.583,133.875 
		206.667,167.209 194.75,167.209 191.167,145.459 182.833,167.209 174.5,167.209 166.167,145.459 162.25,167.209 	"/>
	<polygon fill="#FFFFFF" points="239.167,133.875 233.667,141.542 243.75,141.542 243.75,167.209 255.083,167.209 255.083,133.875 	
		"/>
	<path fill="#FFFFFF" d="M288.229,133.875c-9.606,0-17.396,7.667-17.396,17.126c0,9.457,7.789,17.124,17.396,17.124
		c9.608,0,17.396-7.667,17.396-17.124C305.625,141.542,297.837,133.875,288.229,133.875z M288.416,161.292
		c-3.222,0-5.833-2.417-5.833-10.375c0-9.292,2.611-10.375,5.833-10.375c3.223,0,5.834,1.333,5.834,10.375
		C294.25,159.459,291.639,161.292,288.416,161.292z"/>
	<polygon fill="#FFFFFF" points="320.75,133.875 315.25,141.542 325.333,141.542 325.333,167.209 336.666,167.209 336.666,133.875 	
		"/>
</g>
</svg>
