<svg xml:space="preserve" width="511.835" height="305.692" viewBox="0 0 135.423 80.881" xmlns="http://www.w3.org/2000/svg"><g aria-label="SUARA BUDAYA NUSANTARA" style="font-weight:700;font-size:9.90733px;font-family:&quot;Albert Sans&quot;;-inkscape-font-specification:&quot;Albert Sans Bold&quot;;fill:#10266b;stroke-width:.264584"><path fill="#00ce73" d="M91.241 15.715h14.095v30.039h30.07v35.201h-14.097v-21.12l-12.565.211c-10.033-.247-17.6-3.783-17.557-13.8v-.999l.007-3.268.002-2.267.012-5.965.01-6.088.022-11.943z" style="fill:#00ce73;fill-opacity:1;stroke-width:.250195"/><path fill="#00ce72" d="m121.273 15.788 14.16.013-.023 27.414c-7.678-1.031-14.153-6.742-14.147-15.042z" style="fill:#00ce73;fill-opacity:1;stroke-width:.254878"/><path fill="#00ce73" d="M93.72 6.984q.21-.111.735-.371.543-.26 1.103-.632.56-.39.98-.873.438-.483.438-1.022 0-.65-.438-1.04-.42-.409-1.453-.409H93.72Zm.805-6.65q1.033 0 1.926.185.892.168 1.54.576.665.39 1.051 1.06.384.65.384 1.634 0 .873-.332 1.58-.315.705-.84 1.281-.526.576-1.173 1.022-.648.446-1.278.799-.63.353-1.191.631-.56.26-.892.484v3.752h-2.452V.334Zm8.887 7.074v-4.83h1.125c1.323 0 1.93.601 1.93 1.477 0 1.853-3.055 3.353-3.055 3.353zm5.414-3.567c0-2.472-2.112-3.49-4.838-3.49h-2.935v12.986h2.358v-3.109c.372-.293 1.076-.758 1.75-1.249l2.026 4.358h2.481l-2.676-5.881c1.017-1.006 1.834-2.22 1.834-3.615m5.938-1.447c1.748 0 2.259 2.254 2.259 4.452 0 2.197-.51 4.452-2.26 4.452-1.745 0-2.256-2.255-2.256-4.452 0-2.198.511-4.452 2.257-4.452zm0 11.223c3.144 0 4.616-3.16 4.616-6.77 0-3.607-1.472-6.773-4.616-6.773-3.144 0-4.615 3.166-4.615 6.772 0 3.61 1.47 6.77 4.615 6.77"/><g style="fill:#0375e5;fill-opacity:1"><g style="font-weight:800;font-size:68.6834px;line-height:1.25;font-family:&quot;Albert Sans&quot;;-inkscape-font-specification:&quot;Albert Sans Ultra-Bold&quot;;word-spacing:0;fill:#0375e5;fill-opacity:1;stroke-width:1.71709"><g style="fill:#0375e5;fill-opacity:1"><g style="font-weight:800;font-size:40.1327px;line-height:1.25;font-family:&quot;Albert Sans&quot;;-inkscape-font-specification:&quot;Albert Sans Ultra-Bold&quot;;word-spacing:0;fill:#0375e5;fill-opacity:1;stroke-width:1.00332"><g style="fill:#0375e5;fill-opacity:1"><g style="font-weight:700;font-size:58.7338px;line-height:1.25;font-family:&quot;Albert Sans&quot;;-inkscape-font-specification:&quot;Albert Sans Bold&quot;;word-spacing:0;fill:#0375e5;fill-opacity:1;stroke-width:1.46836"><g style="fill:#0375e5;fill-opacity:1"><g style="font-weight:700;font-size:87.6668px;line-height:1.25;font-family:&quot;Warner Bros. Bold Cond&quot;;-inkscape-font-specification:&quot;Warner Bros. Bold Cond Bold&quot;;word-spacing:0;fill:#0375e5;fill-opacity:1;stroke-width:2.19167"><g style="fill:#0375e5;fill-opacity:1" aria-label="TERUS MENGUDARA UNTUK INDONESIA"><g style="font-weight:800;font-size:40.1327px;line-height:1.25;font-family:&quot;Albert Sans&quot;;-inkscape-font-specification:&quot;Albert Sans Ultra-Bold&quot;;word-spacing:0;fill:#0375e5;fill-opacity:1;stroke-width:1.00332"><g style="fill:#0375e5;fill-opacity:1" aria-label="JARINGAN BERITA NASIONAL"><g style="font-weight:700;font-size:87.6668px;line-height:1.25;font-family:&quot;Warner Bros. Bold Cond&quot;;-inkscape-font-specification:&quot;Warner Bros. Bold Cond Bold&quot;;word-spacing:0;fill:#0375e5;fill-opacity:1;stroke-width:2.19167"><g style="fill:#0375e5;fill-opacity:1" aria-label="PRO"><g style="font-weight:700;font-size:39.8684px;line-height:1.25;font-family:&quot;Warner Bros Sans&quot;;-inkscape-font-specification:&quot;Warner Bros Sans Bold&quot;;word-spacing:0;fill:#0375e5;fill-opacity:1;stroke-width:.99671"><g data-name="Layer 2" style="fill:#0375e5;fill-opacity:1"><g aria-label="SEKALI DI UDARA , TETAP DI UDARA" data-name="Layer 1" style="fill:#0375e5;fill-opacity:1"><path d="M0 82.57h74.89v186.17H0Z" class="cls-1" style="fill:#0375e5;fill-opacity:1" transform="matrix(.18912 0 0 .18675 .011 .511)"/><path d="M158.472 82.56v79.948h-76.07a76.08 79.948 0 0 1 76.07-79.948z" class="cls-1" style="fill:#0375e5;fill-opacity:1;stroke-width:1.01892" transform="matrix(.18912 0 0 .18675 .011 .511)"/><path d="M187.32 82.57h74.89v186.17h-74.89zm261.68 0a74.88 74.88 0 0 0-74.89 74.88v111.29H449ZM374.14 0h74.89v74.89h-74.89ZM354 120.71a42 42 0 1 1-42-41.95 41.8 41.8 0 0 1 42 41.95z" class="cls-1" style="fill:#0375e5;fill-opacity:1" transform="matrix(.18912 0 0 .18675 .011 .511)"/></g></g></g></g></g></g></g></g></g></g></g></g></g></g></g></g></g><g aria-label="PADANG" style="font-weight:700;font-size:16.8403px;line-height:1.25;font-family:'Albert Sans';-inkscape-font-specification:'Albert Sans Bold';word-spacing:0;stroke-width:.682464"><path d="M4.982 60.394q.606 0 .993-.186.387-.185.573-.539.202-.37.202-.858 0-.725-.438-1.146-.421-.42-1.33-.42H2.573v3.149zm4.412-1.583q0 .69-.253 1.364-.236.656-.758 1.212-.505.539-1.33.859-.808.32-1.937.32H2.573v4.294H-.02V55.072h5.136q1.432 0 2.375.522.96.505 1.431 1.364.472.842.472 1.853zM15.507 57.244h-.59L11.55 66.86H8.872l4.26-11.788h4.21l4.244 11.788h-2.678zm-3.79 4.901h6.871v2.172h-6.87zM27.329 55.072q1.886 0 3.267.741 1.397.724 2.172 2.071.775 1.33.775 3.099 0 1.768-.775 3.099-.775 1.313-2.172 2.054-1.381.724-3.267.724H22.73V55.072zm-.135 9.616q1.768 0 2.728-.994.977-.993.977-2.711 0-1.735-.977-2.728-.96-1.01-2.728-1.01h-1.87v7.443zM40.818 57.244h-.59L36.86 66.86h-2.677l4.26-11.788h4.21l4.244 11.788h-2.678zm-3.79 4.901H43.9v2.172h-6.87zM58.045 55.072V66.86h-2.627l-4.782-7.662v7.662h-2.594V55.072h2.627l4.766 7.696v-7.696zM68.587 58.878q-.488-.893-1.246-1.297-.74-.42-1.667-.42-.977 0-1.768.504-.775.489-1.23 1.348-.437.859-.437 1.953 0 1.145.437 2.004.438.842 1.23 1.33.791.472 1.852.472.657 0 1.213-.219.555-.236.993-.64.438-.404.741-.926v-.741h-3.031v-2.055h5.473v3.267q-.404.927-1.179 1.735-.774.792-1.869 1.297-1.095.488-2.492.488-1.314 0-2.409-.438-1.094-.438-1.903-1.246-.808-.808-1.263-1.903-.437-1.111-.437-2.425 0-1.313.437-2.408.455-1.111 1.247-1.92.808-.808 1.903-1.246 1.094-.438 2.408-.438 1.23 0 2.307.387 1.095.388 1.903 1.129.808.724 1.195 1.768z" style="font-weight:800;-inkscape-font-specification:'Albert Sans Ultra-Bold'" transform="matrix(1.0055 0 0 .99453 .04 -.157)"/></g><g aria-label="92.4 FM" style="font-weight:700;font-size:15.0994px;line-height:1.25;font-family:'Albert Sans';-inkscape-font-specification:'Albert Sans Bold';word-spacing:0;stroke-width:.611911"><path d="M3.926 69.42q1.124 0 2.008.492.9.49 1.409 1.35.524.86.524 1.964 0 .86-.345 1.734-.33.875-1.034 1.795L3.836 80.27H1.618l3.117-4.066 1.948-2.118q-.254 1.213-1.109 1.934-.839.706-2.023.706-1.004 0-1.813-.43Q.944 75.85.48 75.052q-.464-.798-.464-1.872 0-1.105.524-1.949.525-.844 1.409-1.32.884-.49 1.978-.49zm1.888 3.76q0-.614-.225-1.059-.224-.445-.659-.69-.42-.246-1.004-.246-.6 0-1.019.246-.405.245-.63.69-.21.445-.21 1.059 0 .599.21 1.044.225.445.63.69.42.246 1.019.246.584 0 1.004-.246.435-.245.66-.69.224-.445.224-1.044zM9.26 78.766l2.923-2.809q.81-.782 1.274-1.32.48-.536.689-.981.21-.46.21-.967 0-.66-.36-1.074-.36-.43-1.184-.43-.494 0-.854.246-.36.23-.554.675-.195.445-.21 1.059H9.246q.03-1.29.524-2.118.495-.829 1.304-1.228.81-.398 1.798-.398 1.154 0 1.948.43.795.414 1.184 1.135.405.72.405 1.657 0 .69-.24 1.335-.225.63-.794 1.335-.555.69-1.529 1.611l-1.738 1.611h4.54v1.734H9.262ZM19.45 80.377q-.554 0-.913-.353-.345-.368-.345-.875 0-.521.345-.874.36-.369.914-.369.54 0 .884.369.36.353.36.874 0 .507-.36.875-.345.353-.884.353zM27.243 77.998h-5.275v-1.565l4.915-6.905h2.383v6.736h1.319v1.734h-1.319v2.271h-2.023zm.09-1.734v-4.526l-3.132 4.526zM34.303 69.557h7.373v1.734h-5.35v2.732h4.001v1.672h-4V80.3h-2.024zM45.198 80.299h-2.024V69.557h2.308l3.342 8.041 3.342-8.04h2.307v10.74H52.45v-6.935l-2.832 6.936H48.03l-2.832-6.936z"/></g></svg>