<svg xml:space="preserve" width="511.835" height="305.692" viewBox="0 0 135.423 80.881" xmlns="http://www.w3.org/2000/svg"><g aria-label="SUARA BUDAYA NUSANTARA" style="font-weight:700;font-size:9.90733px;font-family:&quot;Albert Sans&quot;;-inkscape-font-specification:&quot;Albert Sans Bold&quot;;fill:#10266b;stroke-width:.264584"><path fill="#00ce73" d="M91.241 15.715h14.095v30.039h30.07v35.201h-14.097v-21.12l-12.565.211c-10.033-.247-17.6-3.783-17.557-13.8v-.999l.007-3.268.002-2.267.012-5.965.01-6.088.022-11.943z" style="fill:#00ce73;fill-opacity:1;stroke-width:.250195"/><path fill="#00ce72" d="m121.273 15.788 14.16.013-.023 27.414c-7.678-1.031-14.153-6.742-14.147-15.042z" style="fill:#00ce73;fill-opacity:1;stroke-width:.254878"/><path fill="#00ce73" d="M93.72 6.984q.21-.111.735-.371.543-.26 1.103-.632.56-.39.98-.873.438-.483.438-1.022 0-.65-.438-1.04-.42-.409-1.453-.409H93.72Zm.805-6.65q1.033 0 1.926.185.892.168 1.54.576.665.39 1.051 1.06.384.65.384 1.634 0 .873-.332 1.58-.315.705-.84 1.281-.526.576-1.173 1.022-.648.446-1.278.799-.63.353-1.191.631-.56.26-.892.484v3.752h-2.452V.334Zm8.887 7.074v-4.83h1.125c1.323 0 1.93.601 1.93 1.477 0 1.853-3.055 3.353-3.055 3.353zm5.414-3.567c0-2.472-2.112-3.49-4.838-3.49h-2.935v12.986h2.358v-3.109c.372-.293 1.076-.758 1.75-1.249l2.026 4.358h2.481l-2.676-5.881c1.017-1.006 1.834-2.22 1.834-3.615m5.938-1.447c1.748 0 2.259 2.254 2.259 4.452 0 2.197-.51 4.452-2.26 4.452-1.745 0-2.256-2.255-2.256-4.452 0-2.198.511-4.452 2.257-4.452zm0 11.223c3.144 0 4.616-3.16 4.616-6.77 0-3.607-1.472-6.773-4.616-6.773-3.144 0-4.615 3.166-4.615 6.772 0 3.61 1.47 6.77 4.615 6.77"/><g style="fill:#0375e5;fill-opacity:1"><g style="font-weight:800;font-size:68.6834px;line-height:1.25;font-family:&quot;Albert Sans&quot;;-inkscape-font-specification:&quot;Albert Sans Ultra-Bold&quot;;word-spacing:0;fill:#0375e5;fill-opacity:1;stroke-width:1.71709"><g style="fill:#0375e5;fill-opacity:1"><g style="font-weight:800;font-size:40.1327px;line-height:1.25;font-family:&quot;Albert Sans&quot;;-inkscape-font-specification:&quot;Albert Sans Ultra-Bold&quot;;word-spacing:0;fill:#0375e5;fill-opacity:1;stroke-width:1.00332"><g style="fill:#0375e5;fill-opacity:1"><g style="font-weight:700;font-size:58.7338px;line-height:1.25;font-family:&quot;Albert Sans&quot;;-inkscape-font-specification:&quot;Albert Sans Bold&quot;;word-spacing:0;fill:#0375e5;fill-opacity:1;stroke-width:1.46836"><g style="fill:#0375e5;fill-opacity:1" aria-label="TERUS MENGUDARA UNTUK INDONESIA"><g style="font-weight:700;font-size:87.6668px;line-height:1.25;font-family:&quot;Warner Bros. Bold Cond&quot;;-inkscape-font-specification:&quot;Warner Bros. Bold Cond Bold&quot;;word-spacing:0;fill:#0375e5;fill-opacity:1;stroke-width:2.19167"><g style="fill:#0375e5;fill-opacity:1" aria-label="JARINGAN BERITA NASIONAL"><g style="font-weight:800;font-size:40.1327px;line-height:1.25;font-family:&quot;Albert Sans&quot;;-inkscape-font-specification:&quot;Albert Sans Ultra-Bold&quot;;word-spacing:0;fill:#0375e5;fill-opacity:1;stroke-width:1.00332"><g style="fill:#0375e5;fill-opacity:1" aria-label="PRO"><g style="font-weight:700;font-size:87.6668px;line-height:1.25;font-family:&quot;Warner Bros. Bold Cond&quot;;-inkscape-font-specification:&quot;Warner Bros. Bold Cond Bold&quot;;word-spacing:0;fill:#0375e5;fill-opacity:1;stroke-width:2.19167"><g style="fill:#0375e5;fill-opacity:1"><g style="font-weight:700;font-size:39.8684px;line-height:1.25;font-family:&quot;Warner Bros Sans&quot;;-inkscape-font-specification:&quot;Warner Bros Sans Bold&quot;;word-spacing:0;fill:#0375e5;fill-opacity:1;stroke-width:.99671"><g data-name="Layer 2" style="fill:#0375e5;fill-opacity:1"><g aria-label="SEKALI DI UDARA , TETAP DI UDARA" data-name="Layer 1" style="fill:#0375e5;fill-opacity:1"><path d="M0 82.57h74.89v186.17H0Z" class="cls-1" style="fill:#0375e5;fill-opacity:1" transform="matrix(.18912 0 0 .18675 .011 .511)"/><path d="M158.472 82.56v79.948h-76.07a76.08 79.948 0 0 1 76.07-79.948z" class="cls-1" style="fill:#0375e5;fill-opacity:1;stroke-width:1.01892" transform="matrix(.18912 0 0 .18675 .011 .511)"/><path d="M187.32 82.57h74.89v186.17h-74.89zm261.68 0a74.88 74.88 0 0 0-74.89 74.88v111.29H449ZM374.14 0h74.89v74.89h-74.89ZM354 120.71a42 42 0 1 1-42-41.95 41.8 41.8 0 0 1 42 41.95z" class="cls-1" style="fill:#0375e5;fill-opacity:1" transform="matrix(.18912 0 0 .18675 .011 .511)"/></g></g></g></g></g></g></g></g></g></g></g></g></g></g></g></g></g><g aria-label="BUKITTINGGI" style="font-weight:700;font-size:12.9028px;font-family:'Albert Sans';-inkscape-font-specification:'Albert Sans Bold';stroke-width:.580452"><path d="M5.325 56.289q0-.503-.323-.748-.322-.246-.916-.246H2.01v1.987h2.064q.594 0 .916-.245.336-.245.336-.748zM.022 62.663V53.63h4.413q.942 0 1.587.31.645.296.98.838.349.53.349 1.226 0 .606-.233 1.02-.219.4-.619.645-.387.232-.89.322v.103q.606.078 1.045.336.439.258.67.71.233.438.233 1.07 0 .723-.348 1.278-.349.555-1.007.864-.658.31-1.612.31zm1.987-1.665h2.258q.606 0 .942-.27.348-.271.348-.788 0-.542-.361-.8-.361-.27-.968-.27h-2.22ZM8.835 53.63h2v5.64q0 .567.232.98.232.4.632.607.413.193.955.193.555 0 .967-.193.426-.207.659-.607.232-.413.232-.98v-5.64h2v5.485q0 .916-.323 1.6-.31.683-.864 1.135-.542.452-1.239.684-.697.22-1.458.22-1.02 0-1.884-.4-.864-.4-1.393-1.2-.516-.814-.516-2.04zM18.06 53.63h1.987v3.614h.58l2.981-3.613h2.387l-3.613 4.438 3.73 4.594h-2.504l-2.98-3.742h-.58v3.742H18.06zM27.027 53.63h1.988v9.033h-1.988zM30.202 53.63h7.586v1.665h-2.8v7.368h-1.987v-7.368h-2.8zM38.588 53.63h7.587v1.665h-2.8v7.368h-1.987v-7.368h-2.8zM47.375 53.63h1.987v9.033h-1.987zM58.614 53.63v9.033H56.6l-3.665-5.87v5.87H50.95V53.63h2.013l3.652 5.897V53.63zM66.69 56.547q-.373-.684-.954-.994-.568-.322-1.277-.322-.749 0-1.355.387-.594.374-.942 1.032-.336.658-.336 1.497 0 .877.336 1.535.335.645.942 1.02.606.36 1.419.36.503 0 .929-.167.426-.18.761-.49.336-.31.568-.71v-.567h-2.322v-1.575h4.193v2.504q-.31.71-.903 1.329-.594.606-1.432.993-.84.374-1.91.374-1.007 0-1.845-.335-.839-.336-1.458-.955-.62-.62-.968-1.458-.335-.852-.335-1.858 0-1.007.335-1.845.348-.852.955-1.471.62-.62 1.458-.955.839-.335 1.845-.335.942 0 1.768.296.838.297 1.458.865.619.555.916 1.355zM76.42 56.547q-.375-.684-.955-.994-.568-.322-1.278-.322-.748 0-1.355.387-.593.374-.941 1.032-.336.658-.336 1.497 0 .877.336 1.535.335.645.941 1.02.607.36 1.42.36.503 0 .929-.167.426-.18.761-.49t.568-.71v-.567h-2.323v-1.575h4.194v2.504q-.31.71-.904 1.329-.593.606-1.432.993-.838.374-1.91.374-1.006 0-1.844-.335-.84-.336-1.458-.955-.62-.62-.968-1.458-.336-.852-.336-1.858 0-1.007.336-1.845.348-.852.955-1.471.619-.62 1.458-.955.838-.335 1.845-.335.942 0 1.767.296.84.297 1.458.865.62.555.917 1.355zM79.658 53.63h1.987v9.033h-1.987z" style="font-weight:800;-inkscape-font-specification:'Albert Sans Ultra-Bold'" transform="matrix(.96912 0 0 1.03187 0 -.565)"/></g><g aria-label="88.9 FM" style="font-weight:700;font-size:12.917px;font-family:'Albert Sans';-inkscape-font-specification:'Albert Sans Bold';stroke-width:.58109"><path d="M1.52 72.341q-.564-.28-.915-.772-.338-.506-.338-1.265 0-.665.326-1.211.338-.56 1.015-.892.677-.333 1.717-.333t1.717.333q.676.332 1.015.892.338.546.338 1.211 0 .72-.363 1.252-.351.519-.89.785.689.293 1.078.879.4.586.4 1.398 0 .865-.438 1.478-.426.612-1.166.945-.739.333-1.691.333-.94 0-1.68-.333-.739-.333-1.178-.945-.426-.613-.426-1.478 0-.812.401-1.398.401-.6 1.078-.879zm3.158-1.797q0-.64-.35-.919-.352-.28-1.003-.28-.627 0-.99.28-.364.266-.364.919 0 .586.364.932.376.346.99.346.626 0 .99-.346.363-.36.363-.932zM3.325 73.1q-.464 0-.815.16-.35.16-.551.48-.2.319-.2.798 0 .64.388.999.4.36 1.178.36.777 0 1.178-.36.4-.373.4-.999 0-.466-.2-.785-.188-.32-.539-.48-.35-.173-.84-.173ZM9.327 72.341q-.564-.28-.914-.772-.339-.506-.339-1.265 0-.665.326-1.211.338-.56 1.015-.892.677-.333 1.717-.333t1.717.333q.677.332 1.015.892.338.546.338 1.211 0 .72-.363 1.252-.351.519-.89.785.69.293 1.078.879.4.586.4 1.398 0 .865-.438 1.478-.426.612-1.165.945-.74.333-1.692.333-.94 0-1.68-.333-.739-.333-1.177-.945-.426-.613-.426-1.478 0-.812.4-1.398.402-.6 1.078-.879zm3.158-1.797q0-.64-.35-.919-.351-.28-1.003-.28-.627 0-.99.28-.363.266-.363.919 0 .586.363.932.376.346.99.346.627 0 .99-.346.363-.36.363-.932zM11.132 73.1q-.464 0-.815.16-.35.16-.551.48-.2.319-.2.798 0 .64.388.999.401.36 1.178.36.777 0 1.178-.36.401-.373.401-.999 0-.466-.2-.785-.188-.32-.54-.48-.35-.173-.839-.173zM16.734 77.374q-.464 0-.765-.306-.288-.32-.288-.76 0-.452.288-.758.301-.32.765-.32.45 0 .74.32.3.306.3.759 0 .44-.3.759-.29.306-.74.306zM22.198 67.868q.94 0 1.679.426.752.426 1.178 1.171.439.746.439 1.705 0 .745-.289 1.504-.275.759-.864 1.558l-2.219 3.049h-1.854l2.606-3.528 1.63-1.838q-.214 1.052-.928 1.678-.702.612-1.692.612-.84 0-1.516-.373-.664-.386-1.053-1.078-.388-.692-.388-1.624 0-.959.438-1.691.439-.732 1.178-1.145.74-.426 1.655-.426zm1.579 3.262q0-.533-.188-.919t-.552-.6q-.35-.212-.84-.212-.5 0-.852.213-.338.213-.526.599-.175.386-.175.919 0 .519.175.905.188.386.526.6.351.212.853.212.488 0 .84-.213.363-.213.55-.599.189-.386.189-.905zM30.431 67.961h6.166v1.504h-4.474v2.37h3.346v1.452h-3.346v3.994H30.43ZM39.542 77.28H37.85v-9.319h1.93l2.794 6.976 2.795-6.976h1.93v9.32h-1.692v-6.018L43.24 77.28H41.91l-2.368-6.018z"/></g></svg>