<svg width="512.436" height="339.334" viewBox="0 0 135.582 89.782" xml:space="preserve" xmlns="http://www.w3.org/2000/svg"><g style="fill:#e57521;fill-opacity:1"><path d="M253.529 54.02h58.85v274.89h-58.85V54.019Z" style="fill:#e57521;fill-opacity:1;stroke-width:.993586" transform="matrix(.26458 0 0 .26176 52.962 3.81)"/></g><g style="fill:#e57521;fill-opacity:1"><path d="M623.7 95.617q1.052-.526 3.682-1.753 2.718-1.227 5.523-2.98 2.805-1.842 4.91-4.121 2.19-2.28 2.19-4.822 0-3.068-2.19-4.909-2.105-1.929-7.277-1.929H623.7Zm4.033-31.384q5.172 0 9.643.876 4.47.79 7.715 2.718 3.33 1.841 5.26 4.997 1.928 3.068 1.928 7.715 0 4.12-1.665 7.451-1.578 3.332-4.208 6.05-2.63 2.717-5.874 4.821-3.244 2.104-6.4 3.77-3.156 1.665-5.961 2.98-2.805 1.228-4.471 2.28v17.708h-12.273V64.233Z" transform="matrix(.22009 0 0 .23231 -35.645 -14.515)" style="fill:#e57521;fill-opacity:1"/><path d="M4867.76 1672.528v136.024h32.48c38.25 0 55.799-16.935 55.799-41.596 0-52.191-88.279-94.427-88.279-94.427zm156.381 100.46c0 69.596-61.013 98.256-139.754 98.256h-84.751v-365.705h68.123v87.557c10.733 8.26 31.056 21.349 50.511 35.167l58.521-122.724h71.641l-77.264 165.633c29.339 28.334 52.972 62.527 52.972 101.815m171.492 40.737c50.48 0 65.244-63.467 65.244-125.388 0-61.866-14.764-125.379-65.244-125.379-50.427 0-65.191 63.513-65.191 125.379 0 61.921 14.764 125.388 65.191 125.388zm0-316.069c90.803 0 133.314 88.998 133.314 190.681 0 101.578-42.511 190.736-133.314 190.736s-133.314-89.158-133.314-190.736c0-101.683 42.511-190.681 133.314-190.681" style="fill:#e57521;fill-opacity:1" transform="matrix(.03816 0 0 -.03892 -73.46 73.263)"/></g><path d="M117.694 18.742c.084 6.965-.57 12.896-5.345 18.21-3.008 2.898-8.569 5.303-13.366 7.476l-.053-16.65 9.014-4.517 1.83-.96 1.623-.801c2.371-1.269 4.446-2.279 6.292-3.18z" fill="#e47521" style="fill:#e57521;fill-opacity:1;stroke-width:.245302"/><g style="fill:#0375e5;fill-opacity:1"><g style="font-weight:800;font-size:68.6834px;line-height:1.25;font-family:'Albert Sans';-inkscape-font-specification:'Albert Sans Ultra-Bold';word-spacing:0;fill:#0375e5;fill-opacity:1;stroke-width:1.71709"><g style="fill:#0375e5;fill-opacity:1"><g style="font-weight:800;font-size:40.1327px;line-height:1.25;font-family:'Albert Sans';-inkscape-font-specification:'Albert Sans Ultra-Bold';word-spacing:0;fill:#0375e5;fill-opacity:1;stroke-width:1.00332"><g style="fill:#0375e5;fill-opacity:1" aria-label="TERUS MENGUDARA UNTUK INDONESIA"><g style="font-weight:700;font-size:58.7338px;line-height:1.25;font-family:'Albert Sans';-inkscape-font-specification:'Albert Sans Bold';word-spacing:0;fill:#0375e5;fill-opacity:1;stroke-width:1.46836"><g style="fill:#0375e5;fill-opacity:1" aria-label="JARINGAN BERITA NASIONAL"><g style="font-weight:700;font-size:87.6668px;line-height:1.25;font-family:'Warner Bros. Bold Cond';-inkscape-font-specification:'Warner Bros. Bold Cond Bold';word-spacing:0;fill:#0375e5;fill-opacity:1;stroke-width:2.19167"><g style="fill:#0375e5;fill-opacity:1" aria-label="PRO"><g style="font-weight:800;font-size:40.1327px;line-height:1.25;font-family:'Albert Sans';-inkscape-font-specification:'Albert Sans Ultra-Bold';word-spacing:0;fill:#0375e5;fill-opacity:1;stroke-width:1.00332"><g style="fill:#0375e5;fill-opacity:1"><g style="font-weight:700;font-size:87.6668px;line-height:1.25;font-family:'Warner Bros. Bold Cond';-inkscape-font-specification:'Warner Bros. Bold Cond Bold';word-spacing:0;fill:#0375e5;fill-opacity:1;stroke-width:2.19167"><g style="fill:#0375e5;fill-opacity:1"><g style="font-weight:700;font-size:39.8684px;line-height:1.25;font-family:'Warner Bros Sans';-inkscape-font-specification:'Warner Bros Sans Bold';word-spacing:0;fill:#0375e5;fill-opacity:1;stroke-width:.99671"><g data-name="Layer 2" style="fill:#0375e5;fill-opacity:1" aria-label="SEKALI DI UDARA , TETAP DI UDARA"><g style="fill:#0375e5;fill-opacity:1" data-name="Layer 1"><path d="M0 82.57h74.89v186.17H0Z" class="cls-1" style="fill:#0375e5;fill-opacity:1" transform="matrix(.20993 0 0 .20784 .017 .453)"/><path d="M158.472 82.56v79.948h-76.07a76.08 79.948 0 0 1 76.07-79.948z" class="cls-1" style="fill:#0375e5;fill-opacity:1;stroke-width:1.01892" transform="matrix(.20993 0 0 .20784 .017 .453)"/><path d="M187.32 82.57h74.89v186.17h-74.89zm261.68 0a74.88 74.88 0 0 0-74.89 74.88v111.29H449ZM374.14 0h74.89v74.89h-74.89ZM354 120.71a42 42 0 1 1-42-41.95 41.8 41.8 0 0 1 42 41.95z" class="cls-1" style="fill:#0375e5;fill-opacity:1" transform="matrix(.20993 0 0 .20784 .017 .453)"/></g></g></g></g></g></g></g></g></g></g></g></g></g></g></g></g></svg>