<svg xml:space="preserve" width="513.233" height="306.697" viewBox="0 0 135.793 81.147" xmlns="http://www.w3.org/2000/svg"><g fill="#602bb7"><path d="M94.96 6.495q.203-.104.714-.349.528-.244 1.072-.593.544-.366.953-.82.425-.454.425-.96 0-.61-.425-.977-.409-.384-1.412-.384h-1.328ZM95.74.25q1.004 0 1.871.174.869.158 1.498.541.647.367 1.02.995.376.61.376 1.535 0 .82-.324 1.483-.306.663-.816 1.204-.51.541-1.14.96-.63.419-1.243.75-.612.332-1.157.593-.544.245-.868.454v3.525h-2.38V.249Zm8.64 6.643V2.357h1.093c1.287 0 1.878.564 1.878 1.387 0 1.74-2.971 3.149-2.971 3.149zm5.262-3.35c0-2.321-2.053-3.277-4.702-3.277h-2.854v12.195h2.294v-2.92c.36-.275 1.045-.711 1.7-1.172l1.97 4.092h2.41l-2.6-5.523c.988-.945 1.783-2.085 1.783-3.395m5.772-1.359c1.699 0 2.196 2.117 2.196 4.182 0 2.063-.497 4.18-2.196 4.18-1.698 0-2.194-2.117-2.194-4.18 0-2.065.496-4.182 2.194-4.182zm0 10.54c3.056 0 4.487-2.968 4.487-6.358 0-3.388-1.43-6.36-4.487-6.36-3.057 0-4.487 2.972-4.487 6.36 0 3.39 1.43 6.358 4.487 6.358"/><path d="m281.058 249.33-.06 54.627-105.027-.02c-.454-29.186 22.115-54.604 55.41-54.604zm-133.632 54.611-39.26-.004-.136-40.543 86.708-86.89c16.35-17.603 24.526-32.349 24.526-44.242 0-7.85-3.582-16.144-8.187-20.901-4.608-4.994-13.046-7.197-21.106-7.197-16.12 0-28.61 8.719-36.208 26.795l-45.708-27.272c7.369-17.364 18.309-30.804 32.817-40.318s30.3-13.953 48.263-13.953c27.173.205 51.486 7.413 65.182 24.208 40.251 50.606 10.894 100.735-38.59 151.787-23.895 26.49-48.176 54.45-68.303 78.53z" style="stroke-width:.954765" transform="matrix(.26471 0 0 .26458 61.41 .785)"/></g><g style="fill:#0375e5;fill-opacity:1"><g style="font-weight:800;font-size:68.6834px;line-height:1.25;font-family:&quot;Albert Sans&quot;;-inkscape-font-specification:&quot;Albert Sans Ultra-Bold&quot;;word-spacing:0;fill:#0375e5;fill-opacity:1;stroke-width:1.71709"><g style="fill:#0375e5;fill-opacity:1"><g style="font-weight:800;font-size:40.1327px;line-height:1.25;font-family:&quot;Albert Sans&quot;;-inkscape-font-specification:&quot;Albert Sans Ultra-Bold&quot;;word-spacing:0;fill:#0375e5;fill-opacity:1;stroke-width:1.00332"><g style="fill:#0375e5;fill-opacity:1"><g style="font-weight:700;font-size:58.7338px;line-height:1.25;font-family:&quot;Albert Sans&quot;;-inkscape-font-specification:&quot;Albert Sans Bold&quot;;word-spacing:0;fill:#0375e5;fill-opacity:1;stroke-width:1.46836"><g style="fill:#0375e5;fill-opacity:1"><g style="font-weight:700;font-size:87.6668px;line-height:1.25;font-family:&quot;Warner Bros. Bold Cond&quot;;-inkscape-font-specification:&quot;Warner Bros. Bold Cond Bold&quot;;word-spacing:0;fill:#0375e5;fill-opacity:1;stroke-width:2.19167"><g style="fill:#0375e5;fill-opacity:1" aria-label="TERUS MENGUDARA UNTUK INDONESIA"><g style="font-weight:800;font-size:40.1327px;line-height:1.25;font-family:&quot;Albert Sans&quot;;-inkscape-font-specification:&quot;Albert Sans Ultra-Bold&quot;;word-spacing:0;fill:#0375e5;fill-opacity:1;stroke-width:1.00332"><g style="fill:#0375e5;fill-opacity:1" aria-label="JARINGAN BERITA NASIONAL"><g style="font-weight:700;font-size:87.6668px;line-height:1.25;font-family:&quot;Warner Bros. Bold Cond&quot;;-inkscape-font-specification:&quot;Warner Bros. Bold Cond Bold&quot;;word-spacing:0;fill:#0375e5;fill-opacity:1;stroke-width:2.19167"><g style="fill:#0375e5;fill-opacity:1" aria-label="PRO"><g style="font-weight:700;font-size:39.8684px;line-height:1.25;font-family:&quot;Warner Bros Sans&quot;;-inkscape-font-specification:&quot;Warner Bros Sans Bold&quot;;word-spacing:0;fill:#0375e5;fill-opacity:1;stroke-width:.99671"><g data-name="Layer 2" style="fill:#0375e5;fill-opacity:1"><g aria-label="SEKALI DI UDARA , TETAP DI UDARA" data-name="Layer 1" style="fill:#0375e5;fill-opacity:1"><path d="M0 82.57h74.89v186.17H0Z" class="cls-1" style="fill:#0375e5;fill-opacity:1" transform="matrix(.19096 0 0 .18871 .016 .24)"/><path d="M158.472 82.56v79.948h-76.07a76.08 79.948 0 0 1 76.07-79.948z" class="cls-1" style="fill:#0375e5;fill-opacity:1;stroke-width:1.01892" transform="matrix(.19096 0 0 .18871 .016 .24)"/><path d="M187.32 82.57h74.89v186.17h-74.89zm261.68 0a74.88 74.88 0 0 0-74.89 74.88v111.29H449ZM374.14 0h74.89v74.89h-74.89ZM354 120.71a42 42 0 1 1-42-41.95 41.8 41.8 0 0 1 42 41.95z" class="cls-1" style="fill:#0375e5;fill-opacity:1" transform="matrix(.19096 0 0 .18871 .016 .24)"/></g></g></g></g></g></g></g></g></g></g></g></g></g></g></g></g><g aria-label="PADANG" style="font-weight:700;font-size:16.8403px;line-height:1.25;font-family:'Albert Sans';-inkscape-font-specification:'Albert Sans Bold';word-spacing:0;stroke-width:.682464"><path d="M4.982 60.394q.606 0 .993-.186.387-.185.573-.539.202-.37.202-.858 0-.725-.438-1.146-.421-.42-1.33-.42H2.573v3.149zm4.412-1.583q0 .69-.253 1.364-.236.656-.758 1.212-.505.539-1.33.859-.808.32-1.937.32H2.573v4.294H-.02V55.072h5.136q1.432 0 2.375.522.96.505 1.431 1.364.472.842.472 1.853zM15.507 57.244h-.59L11.55 66.86H8.872l4.26-11.788h4.21l4.244 11.788h-2.678zm-3.79 4.901h6.871v2.172h-6.87zM27.329 55.072q1.886 0 3.267.741 1.397.724 2.172 2.071.775 1.33.775 3.099 0 1.768-.775 3.099-.775 1.313-2.172 2.054-1.381.724-3.267.724H22.73V55.072zm-.135 9.616q1.768 0 2.728-.994.977-.993.977-2.711 0-1.735-.977-2.728-.96-1.01-2.728-1.01h-1.87v7.443zM40.818 57.244h-.59L36.86 66.86h-2.677l4.26-11.788h4.21l4.244 11.788h-2.678zm-3.79 4.901H43.9v2.172h-6.87zM58.045 55.072V66.86h-2.627l-4.782-7.662v7.662h-2.594V55.072h2.627l4.766 7.696v-7.696zM68.587 58.878q-.488-.893-1.246-1.297-.74-.42-1.667-.42-.977 0-1.768.504-.775.489-1.23 1.348-.437.859-.437 1.953 0 1.145.437 2.004.438.842 1.23 1.33.791.472 1.852.472.657 0 1.213-.219.555-.236.993-.64.438-.404.741-.926v-.741h-3.031v-2.055h5.473v3.267q-.404.927-1.179 1.735-.774.792-1.869 1.297-1.095.488-2.492.488-1.314 0-2.409-.438-1.094-.438-1.903-1.246-.808-.808-1.263-1.903-.437-1.111-.437-2.425 0-1.313.437-2.408.455-1.111 1.247-1.92.808-.808 1.903-1.246 1.094-.438 2.408-.438 1.23 0 2.307.387 1.095.388 1.903 1.129.808.724 1.195 1.768z" style="font-weight:800;-inkscape-font-specification:'Albert Sans Ultra-Bold'" transform="matrix(1.00498 0 0 .99453 .044 .14)"/></g><g style="font-weight:700;font-size:14.4299px;font-family:'Albert Sans';-inkscape-font-specification:'Albert Sans Bold';stroke-width:.0891678"><path d="M3.623 79.503q1.063 0 1.9.467.852.467 1.333 1.284.497.817.497 1.868 0 .817-.327 1.648-.312.832-.977 1.707l-2.512 3.341H1.44l2.95-3.866 1.843-2.013q-.241 1.152-1.049 1.838-.795.671-1.915.671-.95 0-1.716-.408-.75-.423-1.19-1.182-.44-.759-.44-1.78 0-1.05.497-1.853.496-.802 1.332-1.255.837-.467 1.872-.467zm1.787 3.575q0-.584-.213-1.007-.213-.423-.624-.656-.397-.234-.95-.234-.566 0-.964.234-.383.233-.596.656-.199.423-.199 1.007 0 .569.2.992.212.423.595.657.398.233.964.233.554 0 .95-.233.411-.234.624-.657.213-.423.213-.992Zm3.361 1.634q0-1.153.184-2.1.199-.964.624-1.65.44-.7 1.178-1.08.737-.379 1.815-.379 1.106 0 1.828.38.738.38 1.163 1.08.44.685.625 1.648.184.948.184 2.101 0 1.167-.184 2.13-.185.963-.624 1.649-.426.686-1.163 1.065-.723.365-1.83.365-1.077 0-1.814-.365-.738-.38-1.178-1.065-.425-.686-.624-1.649-.184-.963-.184-2.13zm5.658 0q0-.7-.057-1.328-.042-.627-.226-1.123-.185-.51-.554-.788-.368-.292-1.02-.292-.639 0-1.008.292-.367.277-.552.788-.185.496-.242 1.123-.042.628-.042 1.328 0 .73.042 1.371.057.642.242 1.124.184.481.552.759.369.277 1.008.277.652 0 1.02-.277.369-.278.554-.76.184-.48.226-1.123.057-.641.057-1.371zm4.637 5.208q-.524 0-.864-.335-.327-.35-.327-.832 0-.496.326-.831.34-.35.865-.35.511 0 .837.35.34.335.34.831 0 .482-.34.832-.326.336-.837.336zm4.27-5.514q-.639-.307-1.036-.847-.383-.554-.383-1.386 0-.73.368-1.327.383-.613 1.15-.978.765-.365 1.942-.365t1.943.365q.765.365 1.148.978.383.598.383 1.327 0 .788-.41 1.372-.398.569-1.008.86.78.322 1.22.964.453.642.453 1.532 0 .948-.497 1.619-.48.671-1.317 1.036t-1.915.365q-1.063 0-1.9-.365t-1.333-1.036q-.482-.671-.482-1.62 0-.89.453-1.531.454-.657 1.22-.963zm3.572-1.97q0-.7-.397-1.007-.397-.306-1.134-.306-.71 0-1.12.306-.411.292-.411 1.007 0 .642.41 1.021.426.38 1.121.38.709 0 1.12-.38.411-.394.411-1.021zm-1.531 2.801q-.525 0-.922.175-.398.175-.624.526-.227.35-.227.875 0 .7.44 1.094.454.394 1.333.394.88 0 1.333-.394.454-.408.454-1.094 0-.51-.227-.86-.213-.351-.61-.526-.397-.19-.95-.19zm9.36-5.631h6.976v1.648H36.65v2.597h3.786v1.59H36.65v4.377h-1.915Zm10.31 10.212h-1.915V79.606h2.184l3.161 7.645 3.163-7.645h2.184v10.212H51.91v-6.594l-2.68 6.594h-1.503l-2.68-6.594z" style="stroke-width:.0888842" transform="translate(.095 -10.164)" aria-label="90.8 FM"/></g></svg>