<svg width="513.109" height="306.905" viewBox="0 0 135.76 81.202" xml:space="preserve" xmlns="http://www.w3.org/2000/svg"><g fill="#602bb7"><path d="M94.96 6.495q.203-.104.714-.349.528-.244 1.072-.593.544-.366.953-.82.425-.454.425-.96 0-.61-.425-.977-.409-.384-1.412-.384h-1.328ZM95.74.25q1.004 0 1.871.174.869.158 1.498.541.647.367 1.02.995.376.61.376 1.535 0 .82-.324 1.483-.306.663-.816 1.204-.51.541-1.14.96-.63.419-1.243.75-.612.332-1.157.593-.544.245-.868.454v3.525h-2.38V.249Zm8.64 6.643V2.357h1.093c1.287 0 1.878.564 1.878 1.387 0 1.74-2.971 3.149-2.971 3.149zm5.262-3.35c0-2.321-2.053-3.277-4.702-3.277h-2.854v12.195h2.294v-2.92c.36-.275 1.045-.711 1.7-1.172l1.97 4.092h2.41l-2.6-5.523c.988-.945 1.783-2.085 1.783-3.395m5.772-1.359c1.699 0 2.196 2.117 2.196 4.182 0 2.063-.497 4.18-2.196 4.18-1.698 0-2.194-2.117-2.194-4.18 0-2.065.496-4.182 2.194-4.182zm0 10.54c3.056 0 4.487-2.968 4.487-6.358 0-3.388-1.43-6.36-4.487-6.36-3.057 0-4.487 2.972-4.487 6.36 0 3.39 1.43 6.358 4.487 6.358"/><path d="m281.058 249.33-.06 54.627-105.027-.02c-.454-29.186 22.115-54.604 55.41-54.604zm-133.632 54.611-39.26-.004-.136-40.543 86.708-86.89c16.35-17.603 24.526-32.349 24.526-44.242 0-7.85-3.582-16.144-8.187-20.901-4.608-4.994-13.046-7.197-21.106-7.197-16.12 0-28.61 8.719-36.208 26.795l-45.708-27.272c7.369-17.364 18.309-30.804 32.817-40.318s30.3-13.953 48.263-13.953c27.173.205 51.486 7.413 65.182 24.208 40.251 50.606 10.894 100.735-38.59 151.787-23.895 26.49-48.176 54.45-68.303 78.53z" style="stroke-width:.954765" transform="matrix(.26471 0 0 .26458 61.41 .785)"/></g><g style="fill:#0375e5;fill-opacity:1"><g style="font-weight:800;font-size:68.6834px;line-height:1.25;font-family:'Albert Sans';-inkscape-font-specification:'Albert Sans Ultra-Bold';word-spacing:0;fill:#0375e5;fill-opacity:1;stroke-width:1.71709"><g style="fill:#0375e5;fill-opacity:1"><g style="font-weight:800;font-size:40.1327px;line-height:1.25;font-family:'Albert Sans';-inkscape-font-specification:'Albert Sans Ultra-Bold';word-spacing:0;fill:#0375e5;fill-opacity:1;stroke-width:1.00332"><g style="fill:#0375e5;fill-opacity:1" aria-label="TERUS MENGUDARA UNTUK INDONESIA"><g style="font-weight:700;font-size:58.7338px;line-height:1.25;font-family:'Albert Sans';-inkscape-font-specification:'Albert Sans Bold';word-spacing:0;fill:#0375e5;fill-opacity:1;stroke-width:1.46836"><g style="fill:#0375e5;fill-opacity:1" aria-label="JARINGAN BERITA NASIONAL"><g style="font-weight:700;font-size:87.6668px;line-height:1.25;font-family:'Warner Bros. Bold Cond';-inkscape-font-specification:'Warner Bros. Bold Cond Bold';word-spacing:0;fill:#0375e5;fill-opacity:1;stroke-width:2.19167"><g style="fill:#0375e5;fill-opacity:1" aria-label="PRO"><g style="font-weight:800;font-size:40.1327px;line-height:1.25;font-family:'Albert Sans';-inkscape-font-specification:'Albert Sans Ultra-Bold';word-spacing:0;fill:#0375e5;fill-opacity:1;stroke-width:1.00332"><g style="fill:#0375e5;fill-opacity:1"><g style="font-weight:700;font-size:87.6668px;line-height:1.25;font-family:'Warner Bros. Bold Cond';-inkscape-font-specification:'Warner Bros. Bold Cond Bold';word-spacing:0;fill:#0375e5;fill-opacity:1;stroke-width:2.19167"><g style="fill:#0375e5;fill-opacity:1"><g style="font-weight:700;font-size:39.8684px;line-height:1.25;font-family:'Warner Bros Sans';-inkscape-font-specification:'Warner Bros Sans Bold';word-spacing:0;fill:#0375e5;fill-opacity:1;stroke-width:.99671"><g data-name="Layer 2" style="fill:#0375e5;fill-opacity:1" aria-label="SEKALI DI UDARA , TETAP DI UDARA"><g style="fill:#0375e5;fill-opacity:1" data-name="Layer 1"><path d="M0 82.57h74.89v186.17H0Z" class="cls-1" style="fill:#0375e5;fill-opacity:1" transform="matrix(.19096 0 0 .18871 .016 .24)"/><path d="M158.472 82.56v79.948h-76.07a76.08 79.948 0 0 1 76.07-79.948z" class="cls-1" style="fill:#0375e5;fill-opacity:1;stroke-width:1.01892" transform="matrix(.19096 0 0 .18871 .016 .24)"/><path d="M187.32 82.57h74.89v186.17h-74.89zm261.68 0a74.88 74.88 0 0 0-74.89 74.88v111.29H449ZM374.14 0h74.89v74.89h-74.89ZM354 120.71a42 42 0 1 1-42-41.95 41.8 41.8 0 0 1 42 41.95z" class="cls-1" style="fill:#0375e5;fill-opacity:1" transform="matrix(.19096 0 0 .18871 .016 .24)"/></g></g></g></g></g></g></g></g></g></g></g></g></g></g></g></g></svg>