<svg xml:space="preserve" width="511.835" height="305.692" viewBox="0 0 135.423 80.881" xmlns="http://www.w3.org/2000/svg"><g aria-label="SUARA BUDAYA NUSANTARA" style="font-weight:700;font-size:9.90733px;font-family:&quot;Albert Sans&quot;;-inkscape-font-specification:&quot;Albert Sans Bold&quot;;fill:#10266b;stroke-width:.264584"><path fill="#00ce73" d="M91.241 15.715h14.095v30.039h30.07v35.201h-14.097v-21.12l-12.565.211c-10.033-.247-17.6-3.783-17.557-13.8v-.999l.007-3.268.002-2.267.012-5.965.01-6.088.022-11.943z" style="fill:#00ce73;fill-opacity:1;stroke-width:.250195"/><path fill="#00ce72" d="m121.273 15.788 14.16.013-.023 27.414c-7.678-1.031-14.153-6.742-14.147-15.042z" style="fill:#00ce73;fill-opacity:1;stroke-width:.254878"/><path fill="#00ce73" d="M93.72 6.984q.21-.111.735-.371.543-.26 1.103-.632.56-.39.98-.873.438-.483.438-1.022 0-.65-.438-1.04-.42-.409-1.453-.409H93.72Zm.805-6.65q1.033 0 1.926.185.892.168 1.54.576.665.39 1.051 1.06.384.65.384 1.634 0 .873-.332 1.58-.315.705-.84 1.281-.526.576-1.173 1.022-.648.446-1.278.799-.63.353-1.191.631-.56.26-.892.484v3.752h-2.452V.334Zm8.887 7.074v-4.83h1.125c1.323 0 1.93.601 1.93 1.477 0 1.853-3.055 3.353-3.055 3.353zm5.414-3.567c0-2.472-2.112-3.49-4.838-3.49h-2.935v12.986h2.358v-3.109c.372-.293 1.076-.758 1.75-1.249l2.026 4.358h2.481l-2.676-5.881c1.017-1.006 1.834-2.22 1.834-3.615m5.938-1.447c1.748 0 2.259 2.254 2.259 4.452 0 2.197-.51 4.452-2.26 4.452-1.745 0-2.256-2.255-2.256-4.452 0-2.198.511-4.452 2.257-4.452zm0 11.223c3.144 0 4.616-3.16 4.616-6.77 0-3.607-1.472-6.773-4.616-6.773-3.144 0-4.615 3.166-4.615 6.772 0 3.61 1.47 6.77 4.615 6.77"/><g style="fill:#0375e5;fill-opacity:1"><g style="font-weight:800;font-size:68.6834px;line-height:1.25;font-family:&quot;Albert Sans&quot;;-inkscape-font-specification:&quot;Albert Sans Ultra-Bold&quot;;word-spacing:0;fill:#0375e5;fill-opacity:1;stroke-width:1.71709"><g style="fill:#0375e5;fill-opacity:1"><g style="font-weight:800;font-size:40.1327px;line-height:1.25;font-family:&quot;Albert Sans&quot;;-inkscape-font-specification:&quot;Albert Sans Ultra-Bold&quot;;word-spacing:0;fill:#0375e5;fill-opacity:1;stroke-width:1.00332"><g style="fill:#0375e5;fill-opacity:1"><g style="font-weight:700;font-size:58.7338px;line-height:1.25;font-family:&quot;Albert Sans&quot;;-inkscape-font-specification:&quot;Albert Sans Bold&quot;;word-spacing:0;fill:#0375e5;fill-opacity:1;stroke-width:1.46836"><g style="fill:#0375e5;fill-opacity:1"><g style="font-weight:700;font-size:87.6668px;line-height:1.25;font-family:&quot;Warner Bros. Bold Cond&quot;;-inkscape-font-specification:&quot;Warner Bros. Bold Cond Bold&quot;;word-spacing:0;fill:#0375e5;fill-opacity:1;stroke-width:2.19167" aria-label="TERUS MENGUDARA UNTUK INDONESIA"><g style="fill:#0375e5;fill-opacity:1"><g style="font-weight:800;font-size:40.1327px;line-height:1.25;font-family:&quot;Albert Sans&quot;;-inkscape-font-specification:&quot;Albert Sans Ultra-Bold&quot;;word-spacing:0;fill:#0375e5;fill-opacity:1;stroke-width:1.00332" aria-label="JARINGAN BERITA NASIONAL"><g style="fill:#0375e5;fill-opacity:1"><g style="font-weight:700;font-size:87.6668px;line-height:1.25;font-family:&quot;Warner Bros. Bold Cond&quot;;-inkscape-font-specification:&quot;Warner Bros. Bold Cond Bold&quot;;word-spacing:0;fill:#0375e5;fill-opacity:1;stroke-width:2.19167" aria-label="PRO"><g style="fill:#0375e5;fill-opacity:1"><g style="font-weight:700;font-size:39.8684px;line-height:1.25;font-family:&quot;Warner Bros Sans&quot;;-inkscape-font-specification:&quot;Warner Bros Sans Bold&quot;;word-spacing:0;fill:#0375e5;fill-opacity:1;stroke-width:.99671"><g data-name="Layer 2" style="fill:#0375e5;fill-opacity:1"><g aria-label="SEKALI DI UDARA , TETAP DI UDARA" data-name="Layer 1" style="fill:#0375e5;fill-opacity:1"><path d="M0 82.57h74.89v186.17H0Z" class="cls-1" style="fill:#0375e5;fill-opacity:1" transform="matrix(.18912 0 0 .18675 .011 .511)"/><path d="M158.472 82.56v79.948h-76.07a76.08 79.948 0 0 1 76.07-79.948z" class="cls-1" style="fill:#0375e5;fill-opacity:1;stroke-width:1.01892" transform="matrix(.18912 0 0 .18675 .011 .511)"/><path d="M187.32 82.57h74.89v186.17h-74.89zm261.68 0a74.88 74.88 0 0 0-74.89 74.88v111.29H449ZM374.14 0h74.89v74.89h-74.89ZM354 120.71a42 42 0 1 1-42-41.95 41.8 41.8 0 0 1 42 41.95z" class="cls-1" style="fill:#0375e5;fill-opacity:1" transform="matrix(.18912 0 0 .18675 .011 .511)"/></g></g></g></g></g></g></g></g></g></g></g></g></g></g></g></g></g><g aria-label="MEDAN" style="font-weight:700;font-size:17.8602px;font-family:'Albert Sans';-inkscape-font-specification:'Albert Sans Bold';stroke-width:.803466"><path d="M2.76 66.393H.01V53.891h3.197l3.715 8.913 3.715-8.913h3.215v12.502h-2.769v-7.608L8.03 66.393H5.814L2.76 58.785ZM25.121 56.195H18.8v2.769h4.733v2.179h-4.733v2.946h6.322v2.304h-9.073V53.891h9.073zM31.837 53.891q2 0 3.465.786 1.482.768 2.304 2.197.821 1.41.821 3.286 0 1.876-.821 3.286-.822 1.394-2.304 2.18-1.465.767-3.465.767H26.96V53.891Zm-.143 10.198q1.875 0 2.893-1.053 1.036-1.054 1.036-2.876 0-1.84-1.036-2.893-1.018-1.072-2.893-1.072H29.71v7.894zM46.143 56.195h-.625l-3.572 10.198h-2.84l4.519-12.502h4.465l4.5 12.502h-2.84zm-4.019 5.198h7.287v2.304h-7.287zM64.414 53.891v12.502h-2.786l-5.073-8.126v8.126h-2.75V53.891h2.786l5.055 8.162v-8.162z" style="font-weight:800;-inkscape-font-specification:'Albert Sans Ultra-Bold'" transform="scale(.99173 1.00834)"/></g><g aria-label="88.4 FM" style="font-weight:700;font-size:14.5016px;font-family:'Albert Sans';-inkscape-font-specification:'Albert Sans Bold';stroke-width:.652374"><path d="M1.696 75.15q-.636-.312-1.031-.863-.382-.565-.382-1.414 0-.744.368-1.354.381-.625 1.144-.997.763-.372 1.936-.372t1.937.372q.763.372 1.144.997.382.61.382 1.354 0 .804-.41 1.4-.396.58-1.003.877.777.327 1.215.982.452.655.452 1.563 0 .967-.494 1.651-.48.685-1.315 1.057-.833.372-1.908.372-1.06 0-1.893-.372-.834-.372-1.329-1.057-.48-.684-.48-1.651 0-.908.452-1.563.452-.67 1.215-.982zm3.562-2.009q0-.714-.396-1.026-.396-.313-1.13-.313-.707 0-1.117.313-.41.297-.41 1.026 0 .655.41 1.042.424.387 1.116.387.707 0 1.117-.387.41-.402.41-1.042zM3.73 75.998q-.522 0-.918.179-.396.178-.622.535-.226.358-.226.893 0 .715.438 1.116.452.402 1.328.402.877 0 1.329-.402.452-.416.452-1.116 0-.52-.226-.878-.212-.357-.608-.535-.395-.194-.947-.194ZM10.501 75.15q-.636-.312-1.032-.863-.381-.565-.381-1.414 0-.744.367-1.354.382-.625 1.145-.997t1.936-.372q1.173 0 1.936.372.763.372 1.145.997.382.61.382 1.354 0 .804-.41 1.4-.396.58-1.004.877.778.327 1.216.982.452.655.452 1.563 0 .967-.495 1.651-.48.685-1.314 1.057-.834.372-1.908.372-1.06 0-1.894-.372-.834-.372-1.328-1.057-.48-.684-.48-1.651 0-.908.452-1.563.452-.67 1.215-.982zm3.561-2.009q0-.714-.395-1.026-.396-.313-1.13-.313-.708 0-1.117.313-.41.297-.41 1.026 0 .655.41 1.042.424.387 1.116.387.707 0 1.117-.387.41-.402.41-1.042zm-1.526 2.857q-.523 0-.919.179-.395.178-.621.535-.226.358-.226.893 0 .715.438 1.116.452.402 1.328.402.876 0 1.329-.402.452-.416.452-1.116 0-.52-.226-.878-.212-.357-.608-.535-.396-.194-.947-.194ZM18.853 80.775q-.523 0-.862-.342-.325-.358-.325-.849 0-.506.325-.848.34-.357.862-.357.51 0 .834.357.34.342.34.848 0 .491-.34.849-.325.342-.834.342zM26.202 78.468h-4.974v-1.517l4.635-6.696h2.247v6.532h1.244v1.681H28.11v2.203h-1.908zm.085-1.681v-4.39l-2.954 4.39zM34.908 70.255h6.953v1.681h-5.045v2.649h3.773v1.622h-3.773v4.464h-1.908zM45.183 80.67h-1.908V70.256h2.176l3.152 7.797 3.151-7.797h2.177V80.67h-1.908v-6.726l-2.671 6.726h-1.498l-2.671-6.726Z"/></g></svg>