<svg xml:space="preserve" width="512.62" height="339.711" viewBox="0 0 135.631 89.882" xmlns="http://www.w3.org/2000/svg"><g style="font-weight:700;font-size:49.2448px;line-height:1.25;font-family:&quot;Albert Sans&quot;;-inkscape-font-specification:&quot;Albert Sans Bold&quot;;word-spacing:0;fill:#e57521;fill-opacity:1;stroke-width:2.69822"><path d="M253.529 54.02h58.85v274.89h-58.85V54.019Z" style="fill:#e57521;fill-opacity:1;stroke-width:.993586" transform="matrix(.26437 0 0 .26176 53.014 3.81)"/></g><g style="font-weight:700;font-size:49.2448px;line-height:1.25;font-family:&quot;Albert Sans&quot;;-inkscape-font-specification:&quot;Albert Sans Bold&quot;;word-spacing:0;fill:#e57521;fill-opacity:1;stroke-width:2.69822"><path d="M623.7 95.617q1.052-.526 3.682-1.753 2.718-1.227 5.523-2.98 2.805-1.842 4.91-4.121 2.19-2.28 2.19-4.822 0-3.068-2.19-4.909-2.105-1.929-7.277-1.929H623.7Zm4.033-31.384q5.172 0 9.643.876 4.47.79 7.715 2.718 3.33 1.841 5.26 4.997 1.928 3.068 1.928 7.715 0 4.12-1.665 7.451-1.578 3.332-4.208 6.05-2.63 2.717-5.874 4.821-3.244 2.104-6.4 3.77-3.156 1.665-5.961 2.98-2.805 1.228-4.471 2.28v17.708h-12.273V64.233Z" style="fill:#e57521;fill-opacity:1" transform="matrix(.22009 0 0 .23231 -35.645 -14.515)"/><path d="M4867.76 1672.528v136.024h32.48c38.25 0 55.799-16.935 55.799-41.596 0-52.191-88.279-94.427-88.279-94.427zm156.381 100.46c0 69.596-61.013 98.256-139.754 98.256h-84.751v-365.705h68.123v87.557c10.733 8.26 31.056 21.349 50.511 35.167l58.521-122.724h71.641l-77.264 165.633c29.339 28.334 52.972 62.527 52.972 101.815m171.492 40.737c50.48 0 65.244-63.467 65.244-125.388 0-61.866-14.764-125.379-65.244-125.379-50.427 0-65.191 63.513-65.191 125.379 0 61.921 14.764 125.388 65.191 125.388zm0-316.069c90.803 0 133.314 88.998 133.314 190.681 0 101.578-42.511 190.736-133.314 190.736s-133.314-89.158-133.314-190.736c0-101.683 42.511-190.681 133.314-190.681" style="fill:#e57521;fill-opacity:1" transform="matrix(.03816 0 0 -.03892 -73.46 73.263)"/></g><path fill="#e47521" d="M117.694 18.742c.084 6.965-.57 12.896-5.345 18.21-3.008 2.898-8.569 5.303-13.366 7.476l-.053-16.65 9.014-4.517 1.83-.96 1.623-.801c2.371-1.269 4.446-2.279 6.292-3.18z" style="font-weight:700;font-size:49.2448px;line-height:1.25;font-family:&quot;Albert Sans&quot;;-inkscape-font-specification:&quot;Albert Sans Bold&quot;;word-spacing:0;fill:#e57521;fill-opacity:1;stroke-width:.245302"/><g style="font-weight:700;font-size:49.2448px;line-height:1.25;font-family:&quot;Albert Sans&quot;;-inkscape-font-specification:&quot;Albert Sans Bold&quot;;word-spacing:0;fill:#0375e5;fill-opacity:1;stroke-width:2.69822"><g style="font-weight:800;font-size:68.6834px;line-height:1.25;font-family:&quot;Albert Sans&quot;;-inkscape-font-specification:&quot;Albert Sans Ultra-Bold&quot;;word-spacing:0;fill:#0375e5;fill-opacity:1;stroke-width:1.71709"><g style="fill:#0375e5;fill-opacity:1"><g style="font-weight:800;font-size:40.1327px;line-height:1.25;font-family:&quot;Albert Sans&quot;;-inkscape-font-specification:&quot;Albert Sans Ultra-Bold&quot;;word-spacing:0;fill:#0375e5;fill-opacity:1;stroke-width:1.00332"><g style="fill:#0375e5;fill-opacity:1"><g style="font-weight:700;font-size:58.7338px;line-height:1.25;font-family:&quot;Albert Sans&quot;;-inkscape-font-specification:&quot;Albert Sans Bold&quot;;word-spacing:0;fill:#0375e5;fill-opacity:1;stroke-width:1.46836"><g style="fill:#0375e5;fill-opacity:1"><g style="font-weight:700;font-size:87.6668px;line-height:1.25;font-family:&quot;Warner Bros. Bold Cond&quot;;-inkscape-font-specification:&quot;Warner Bros. Bold Cond Bold&quot;;word-spacing:0;fill:#0375e5;fill-opacity:1;stroke-width:2.19167" aria-label="TERUS MENGUDARA UNTUK INDONESIA"><g style="fill:#0375e5;fill-opacity:1"><g style="font-weight:800;font-size:40.1327px;line-height:1.25;font-family:&quot;Albert Sans&quot;;-inkscape-font-specification:&quot;Albert Sans Ultra-Bold&quot;;word-spacing:0;fill:#0375e5;fill-opacity:1;stroke-width:1.00332" aria-label="JARINGAN BERITA NASIONAL"><g style="fill:#0375e5;fill-opacity:1"><g style="font-weight:700;font-size:87.6668px;line-height:1.25;font-family:&quot;Warner Bros. Bold Cond&quot;;-inkscape-font-specification:&quot;Warner Bros. Bold Cond Bold&quot;;word-spacing:0;fill:#0375e5;fill-opacity:1;stroke-width:2.19167" aria-label="PRO"><g style="fill:#0375e5;fill-opacity:1"><g style="font-weight:700;font-size:39.8684px;line-height:1.25;font-family:&quot;Warner Bros Sans&quot;;-inkscape-font-specification:&quot;Warner Bros Sans Bold&quot;;word-spacing:0;fill:#0375e5;fill-opacity:1;stroke-width:.99671"><g data-name="Layer 2" style="fill:#0375e5;fill-opacity:1"><g aria-label="SEKALI DI UDARA , TETAP DI UDARA" data-name="Layer 1" style="fill:#0375e5;fill-opacity:1"><path d="M0 82.57h74.89v186.17H0Z" class="cls-1" style="fill:#0375e5;fill-opacity:1" transform="matrix(.20993 0 0 .20784 .017 .453)"/><path d="M158.472 82.56v79.948h-76.07a76.08 79.948 0 0 1 76.07-79.948z" class="cls-1" style="fill:#0375e5;fill-opacity:1;stroke-width:1.01892" transform="matrix(.20993 0 0 .20784 .017 .453)"/><path d="M187.32 82.57h74.89v186.17h-74.89zm261.68 0a74.88 74.88 0 0 0-74.89 74.88v111.29H449ZM374.14 0h74.89v74.89h-74.89ZM354 120.71a42 42 0 1 1-42-41.95 41.8 41.8 0 0 1 42 41.95z" class="cls-1" style="fill:#0375e5;fill-opacity:1" transform="matrix(.20993 0 0 .20784 .017 .453)"/></g></g></g></g></g></g></g></g></g></g></g></g></g></g></g></g><g aria-label="BUKITTINGGI" style="font-weight:700;font-size:14.2192px;font-family:'Albert Sans';-inkscape-font-specification:'Albert Sans Bold';stroke-width:.639672"><path d="M5.853 63.708q0-.554-.355-.824-.356-.27-1.01-.27H2.2v2.19h2.275q.654 0 1.01-.27.37-.271.37-.826zM.01 70.733v-9.954h4.863q1.038 0 1.75.342.71.327 1.08.924.384.583.384 1.35 0 .669-.256 1.124-.242.44-.683.71-.426.257-.98.356v.114q.668.085 1.151.37.483.284.74.782.255.483.255 1.18 0 .796-.384 1.408-.384.611-1.109.953-.725.34-1.777.34zm2.19-1.835h2.488q.669 0 1.038-.298.384-.299.384-.867 0-.598-.398-.882-.398-.299-1.066-.299H2.199ZM9.721 60.78h2.204v6.213q0 .626.256 1.08.256.442.697.67.455.212 1.052.212.611 0 1.066-.213.47-.227.726-.668.255-.455.255-1.08v-6.215h2.204v6.043q0 1.01-.355 1.764-.341.753-.953 1.251-.597.498-1.365.754-.768.241-1.607.241-1.123 0-2.076-.44-.952-.441-1.535-1.323-.569-.896-.569-2.247zM19.888 60.78h2.19v3.98h.64l3.284-3.98h2.63l-3.98 4.89 4.109 5.063h-2.759l-3.285-4.124h-.64v4.124h-2.19zM29.77 60.78h2.19v9.953h-2.19zM33.268 60.78h8.36v1.834h-3.085v8.119h-2.19v-8.12h-3.085zM42.51 60.78h8.361v1.834h-3.085v8.119h-2.19v-8.12H42.51zM52.194 60.78h2.19v9.953h-2.19zM64.579 60.78v9.953H62.36l-4.039-6.47v6.47h-2.19v-9.954h2.219l4.024 6.498V60.78zM73.48 63.993q-.412-.754-1.052-1.095-.626-.355-1.408-.355-.825 0-1.493.426-.654.412-1.038 1.138-.37.725-.37 1.649 0 .967.37 1.692.37.711 1.038 1.123.668.399 1.564.399.555 0 1.024-.185.47-.2.839-.54.37-.342.625-.783v-.625H71.02v-1.735h4.621v2.758q-.341.783-.995 1.465-.654.668-1.578 1.095-.925.412-2.105.412-1.109 0-2.033-.37-.924-.37-1.607-1.052-.683-.682-1.066-1.606-.37-.939-.37-2.048 0-1.11.37-2.033.383-.939 1.052-1.621.682-.683 1.607-1.053.924-.37 2.033-.37 1.038 0 1.948.328.924.327 1.607.953.682.61 1.01 1.493zM84.201 63.993q-.412-.754-1.052-1.095-.626-.355-1.408-.355-.824 0-1.493.426-.654.412-1.038 1.138-.37.725-.37 1.649 0 .967.37 1.692.37.711 1.038 1.123.669.399 1.564.399.555 0 1.024-.185.47-.2.84-.54.369-.342.625-.783v-.625h-2.56v-1.735h4.622v2.758q-.342.783-.996 1.465-.654.668-1.578 1.095-.924.412-2.105.412-1.109 0-2.033-.37-.924-.37-1.607-1.052-.682-.682-1.066-1.606-.37-.939-.37-2.048 0-1.11.37-2.033.384-.939 1.052-1.621.683-.683 1.607-1.053.924-.37 2.033-.37 1.038 0 1.948.328.924.327 1.607.953.683.61 1.01 1.493zM87.77 60.78h2.19v9.953h-2.19z" style="font-weight:800;-inkscape-font-specification:'Albert Sans Ultra-Bold'" transform="matrix(.97548 0 0 1.00888 0 -.598)"/></g><g aria-label="97.2 FM" style="font-weight:700;font-size:14.2192px;font-family:'Albert Sans';-inkscape-font-specification:'Albert Sans Bold';stroke-width:.639672"><path d="M3.656 74.828q1.04 0 1.858.459.833.459 1.304 1.262.486.804.486 1.836 0 .804-.32 1.621-.304.818-.956 1.679L3.573 84.97H1.52l2.885-3.802 1.803-1.98q-.236 1.134-1.026 1.808-.777.66-1.873.66-.93 0-1.678-.402-.735-.416-1.165-1.162-.43-.745-.43-1.75 0-1.033.485-1.822.486-.789 1.304-1.233.818-.46 1.83-.46Zm1.747 3.514q0-.573-.208-.99-.208-.416-.61-.645-.388-.23-.93-.23-.554 0-.942.23-.375.23-.583.646-.194.416-.194.99 0 .559.194.975.208.416.583.645.388.23.943.23.54 0 .93-.23.401-.23.61-.645.207-.416.207-.976zM15.113 74.928v1.449l-3.717 8.593H9.48l3.76-8.42H8.426v-1.622zM17.443 85.07q-.513 0-.846-.33-.32-.344-.32-.817 0-.488.32-.818.333-.344.846-.344.5 0 .818.344.333.33.333.818 0 .473-.333.817-.319.33-.818.33zM19.954 83.564l2.704-2.625q.75-.732 1.18-1.234.443-.502.637-.918.195-.43.195-.904 0-.617-.333-1.004-.333-.402-1.096-.402-.458 0-.79.23-.334.215-.514.631-.18.416-.194.99H19.94q.027-1.205.485-1.98.458-.774 1.207-1.147.749-.373 1.664-.373 1.068 0 1.804.401.735.388 1.095 1.062.375.674.375 1.55 0 .645-.222 1.247-.208.588-.735 1.248-.513.646-1.415 1.507l-1.609 1.506h4.203v1.62h-6.838zM32.34 74.928h6.824v1.621h-4.952v2.554h3.704v1.563h-3.704v4.304H32.34zM42.424 84.97H40.55V74.928h2.136l3.093 7.517 3.094-7.517h2.136V84.97h-1.873v-6.484l-2.621 6.484h-1.47l-2.622-6.484z"/></g></svg>